<svg width="262" height="255" viewBox="0 0 262 255" fill="none" xmlns="http://www.w3.org/2000/svg">
<path d="M65.4552 101.075C66.5196 101.567 67.6345 101.796 68.7998 101.761C69.9697 101.685 71.0624 101.467 72.0779 101.105C73.098 100.702 73.9157 100.256 74.5308 99.7659C75.2598 99.1856 75.595 98.6956 75.5364 98.2959C75.5415 97.8827 75.4804 97.5965 75.3532 97.4374C75.1896 97.2328 74.853 97.0916 74.3433 97.0137C73.8382 96.895 73.0349 96.8463 71.9333 96.8675C70.8136 96.866 69.2568 96.9707 67.2628 97.1815C66.193 97.2891 65.2007 97.3536 64.2857 97.3751C63.3708 97.3966 62.5334 97.282 61.7736 97.0312C61.0138 96.7805 60.3431 96.2914 59.7614 95.5641C59.1252 94.7686 58.6101 93.6349 58.2161 92.1631C57.822 90.6912 57.556 88.7268 57.4182 86.2699C57.3249 84.5215 57.4929 83.123 57.9222 82.0746C58.3742 81.0081 58.9647 80.1846 59.6938 79.6043C60.5823 78.8971 61.5638 78.4692 62.6382 78.3208C63.7126 78.1724 64.7071 78.1805 65.6218 78.3452C66.5411 78.469 67.2054 78.647 67.6148 78.8791C67.7922 78.9611 68.0148 79.286 68.2826 79.854C68.5732 80.4039 68.8613 81.0673 69.147 81.8442C69.4146 82.5983 69.6526 83.3389 69.861 84.0657C70.0512 84.7698 70.162 85.3512 70.1932 85.8099C70.2291 86.2278 70.1492 86.3843 69.9537 86.2796C68.721 85.6241 67.4925 85.3 66.268 85.3075C65.0436 85.315 63.9441 85.502 62.9696 85.8685C61.9996 86.1942 61.2526 86.5656 60.7286 86.9827C60.2046 87.3998 59.947 87.7537 59.9557 88.0443C59.9511 88.0852 59.9533 88.1578 59.9623 88.2623C59.9712 88.3667 60.0302 88.4872 60.1393 88.6235C60.2847 88.8054 60.6054 88.9965 61.1012 89.197C61.6199 89.3793 62.414 89.5098 63.4835 89.5884C64.5577 89.6261 66.0485 89.5554 67.9559 89.3763C69.0485 89.2506 70.0773 89.1384 71.0424 89.0398C71.9893 88.9184 72.8678 88.9445 73.6778 89.1182C74.4696 89.2691 75.1654 89.7195 75.7652 90.4696C76.3651 91.2197 76.8597 92.3511 77.2492 93.8638C77.6432 95.3356 77.9227 97.3636 78.0877 99.9477C78.2125 101.969 78.0192 103.592 77.5078 104.817C76.9964 106.043 76.3306 106.982 75.5104 107.635C74.6674 108.306 73.7269 108.738 72.6889 108.932C71.6736 109.108 70.7154 109.145 69.8143 109.044C68.9178 108.902 68.2216 108.731 67.7257 108.53C67.6484 108.48 67.5462 108.376 67.4189 108.217C67.1099 107.83 66.7921 107.246 66.4654 106.465C66.1433 105.642 65.8645 104.804 65.6289 103.95C65.3752 103.073 65.2282 102.353 65.188 101.79C65.1296 101.204 65.2186 100.966 65.4552 101.075Z" fill="#FFFBE6"/>
<path d="M54.2213 98.5794C53.2565 98.4919 52.3986 98.3749 51.6478 98.2286C50.8788 98.0596 50.258 97.6796 49.7854 97.0886C49.44 96.6568 49.1836 96.0797 49.0161 95.3575C48.8714 94.6171 48.8022 93.6679 48.8082 92.5099C48.7901 92.4872 48.7949 92.2601 48.8228 91.8288C48.8735 91.3793 48.9447 90.839 49.0366 90.2079C49.1285 89.5768 49.2248 88.9979 49.3256 88.4713C49.385 88.3124 49.4945 88.1695 49.6539 88.0426C49.9273 87.825 50.2734 87.6983 50.6922 87.6625C51.0929 87.604 51.2748 87.7382 51.2379 88.0651C51.2151 88.0832 51.1648 88.2535 51.087 88.5758C51.0138 88.8572 50.9605 89.6064 50.927 90.8234C50.927 90.8234 50.9406 90.887 50.9677 91.0142C50.9995 91.1005 51.0699 91.2119 51.179 91.3482C51.3607 91.5755 51.7268 91.8235 52.2772 92.0922C52.8094 92.3381 53.6832 92.4982 54.8984 92.5724C55.0213 92.5862 55.1281 92.6499 55.219 92.7636C55.4371 93.0363 55.5617 93.4951 55.5927 94.14C55.6283 94.744 55.5865 95.3911 55.4673 96.0812C55.348 96.7713 55.1765 97.3727 54.9528 97.8856C54.7337 98.3576 54.4899 98.5888 54.2213 98.5794Z" fill="#FFFBE6"/>
<path d="M46.9222 99.7021C46.5392 100.156 46.0697 100.641 45.5137 101.158C44.9624 101.634 44.3768 102.137 43.7571 102.668C44.1751 103.191 44.6907 103.952 45.3039 104.952C45.9217 105.911 46.5894 106.979 47.307 108.156C48.0474 109.315 48.7787 110.462 49.5009 111.599C50.2459 112.717 50.9638 113.708 51.6545 114.571C52.4906 115.617 53.2203 116.319 53.8434 116.679C53.998 116.779 54.0931 117.131 54.1287 117.735C54.169 118.298 54.1635 118.991 54.1123 119.813C54.043 120.612 53.9418 121.418 53.8087 122.231C53.6803 123.002 53.536 123.638 53.3761 124.137C53.2207 124.596 53.0543 124.784 52.8769 124.702C52.5085 124.474 52.0993 124.149 51.6492 123.726C51.2219 123.285 50.7811 122.781 50.3267 122.212C49.5996 121.303 48.8545 120.278 48.0913 119.137C47.3099 117.974 46.5581 116.824 45.8359 115.688C45.1365 114.533 44.496 113.499 43.9146 112.586C43.315 111.65 42.8244 110.943 42.4427 110.465C42.2427 110.215 42.0654 110.04 41.9108 109.94C41.7334 109.858 41.6406 109.486 41.6324 108.823C41.606 108.137 41.6434 107.345 41.7447 106.446C41.8461 105.547 41.9701 104.723 42.1167 103.974C42.0484 104.028 41.9686 104.091 41.8775 104.164L40.5789 105.198C39.3258 106.195 38.1935 107.134 37.1818 108.013C36.1702 108.893 35.5365 109.639 35.2808 110.252C35.258 110.27 35.2443 110.299 35.2397 110.34C35.1258 110.431 34.9598 110.34 34.7417 110.067C34.4872 109.749 34.1897 109.26 33.8492 108.601C33.5133 107.902 33.2002 107.184 32.9098 106.448C32.6013 105.689 32.3564 105.01 32.1751 104.41C32.0166 103.792 31.9899 103.386 32.0948 103.191C32.3413 102.66 32.8018 102.07 33.4763 101.421C34.1508 100.773 34.9324 100.095 35.8209 99.3878C36.7094 98.6806 37.6617 97.9598 38.6777 97.2255C39.6755 96.4684 40.6301 95.7272 41.5414 95.0018C42.1337 94.5303 42.6714 94.0837 43.1545 93.6621C43.6603 93.2222 44.091 92.805 44.4466 92.4104L44.5491 92.3288C44.7769 92.1475 45.0453 92.25 45.3543 92.6364C45.6452 93.0001 45.9176 93.5272 46.1715 94.2178C46.4483 94.8902 46.6772 95.6194 46.8582 96.4052C47.0439 97.1502 47.1431 97.8338 47.1559 98.4559C47.1916 99.0599 47.1136 99.4753 46.9222 99.7021Z" fill="#FFFBE6"/>
<path d="M23.3232 123.898L23.7675 123.545C23.1187 121.941 22.5928 120.351 22.1898 118.774C21.7868 117.198 21.6044 115.688 21.6428 114.244C21.6629 112.777 21.9901 111.438 22.6244 110.226C22.9119 109.7 23.2721 109.264 23.7049 108.92C24.4795 108.303 25.5018 107.973 26.7718 107.929C28.0236 107.863 29.4364 108.301 31.01 109.243C31.1647 109.343 31.2507 109.684 31.2681 110.265C31.3083 110.828 31.3029 111.521 31.2517 112.342C31.2052 113.123 31.1177 113.9 30.9892 114.672C30.8653 115.403 30.7143 116.006 30.5362 116.483C30.3808 116.941 30.2258 117.121 30.0712 117.021C28.7295 116.229 27.7423 115.787 27.1098 115.695C26.459 115.581 25.9742 115.651 25.6552 115.904C25.5185 116.013 25.4091 116.156 25.3269 116.333C25.2266 116.487 25.1376 116.633 25.0601 116.769C24.8957 117.123 24.936 117.686 25.1807 118.458C25.4255 119.23 25.8429 120.219 26.4331 121.423L34.3342 115.078C34.4253 115.005 34.5618 115.083 34.7435 115.31C34.998 115.628 35.2704 116.155 35.5608 116.892C35.8739 117.609 36.1596 118.386 36.4179 119.222C36.6809 120.017 36.8688 120.742 36.9818 121.396C37.0765 122.027 37.0555 122.397 36.9188 122.506L29.9404 128.117C30.2356 128.626 30.5285 129.155 30.8191 129.705C31.1097 130.255 31.4071 130.836 31.7112 131.45C31.9529 131.146 32.2127 130.865 32.4907 130.606C32.7505 130.325 33.0171 130.076 33.2905 129.858C33.5867 129.622 33.901 129.409 34.2335 129.219C34.5707 128.988 34.9169 128.768 35.2722 128.559C35.8689 128.233 36.5363 127.832 37.2743 127.356C38.0123 126.881 38.7003 126.389 39.3382 125.881C39.8622 125.464 40.3111 125.069 40.6848 124.698C41.0631 124.285 41.2684 123.935 41.3007 123.649C41.3966 123.35 41.5016 123.155 41.6155 123.064C41.8433 122.883 42.1481 123.031 42.5298 123.508C42.8752 123.94 43.2294 124.569 43.5924 125.396C43.9555 126.223 44.2343 127.061 44.4289 127.911C44.6235 128.76 44.6704 129.448 44.5695 129.975C44.4001 130.742 44.117 131.414 43.7203 131.99C43.3053 132.544 42.8245 133.038 42.2777 133.473C41.5942 134.017 40.8471 134.482 40.0364 134.867C39.2484 135.233 38.5219 135.607 37.8569 135.988C37.3285 136.259 36.8479 136.568 36.415 136.912C35.891 137.329 35.4353 137.785 35.0477 138.279C34.6829 138.756 34.2999 139.302 33.8985 139.92C33.8985 139.92 33.8848 139.949 33.8574 140.008C33.83 140.067 33.7935 140.115 33.748 140.151C33.6796 140.205 33.584 140.226 33.4611 140.212C33.361 140.18 33.2201 140.05 33.0383 139.823C32.8748 139.618 32.6635 139.284 32.4047 138.821C32.046 138.139 31.3715 137.039 30.3813 135.521C29.391 134.003 28.3214 132.269 27.1723 130.32L25.9079 131.326C25.8168 131.399 25.6803 131.321 25.4986 131.094C25.2441 130.776 24.9603 130.258 24.6472 129.54C24.3568 128.804 24.0802 128.038 23.8172 127.243C23.5589 126.407 23.371 125.683 23.2534 125.07C23.1405 124.416 23.1638 124.025 23.3232 123.898Z" fill="#FFFBE6"/>
<path d="M5.2334 123.177C5.59817 122.7 6.0125 122.612 6.47638 122.913C6.94486 123.172 7.4154 123.597 7.888 124.188C8.1243 124.484 8.36739 124.811 8.61726 125.17C8.84895 125.506 9.07156 125.831 9.28507 126.145C10.8977 128.581 12.499 131.026 14.0888 133.481C15.6833 135.894 17.2982 138.31 18.9337 140.728C19.2301 140.306 19.572 139.941 19.9593 139.633C20.6427 139.088 21.4398 138.733 22.3503 138.566C22.9058 138.422 23.4409 138.275 23.9554 138.126C24.4518 137.954 24.8822 137.723 25.2467 137.432C25.4973 137.233 25.7207 136.999 25.9168 136.732C26.1175 136.423 26.2727 136.058 26.3825 135.636C26.4373 135.518 26.4761 135.45 26.4988 135.432C26.59 135.359 26.7082 135.414 26.8537 135.595C27.0718 135.868 27.3283 136.352 27.6233 137.047C27.9228 137.702 28.2041 138.426 28.467 139.221C28.7118 139.994 28.9111 140.709 29.065 141.368C29.2007 142.004 29.2229 142.451 29.1315 142.71C28.9989 143.15 28.8209 143.534 28.5974 143.86C28.3786 144.146 28.121 144.407 27.8249 144.643C27.1869 145.15 26.44 145.522 25.5839 145.757C24.7097 145.969 23.9425 146.152 23.2823 146.305C22.6221 146.459 22.0072 146.762 21.4376 147.216C20.8909 147.651 20.4691 148.173 20.1725 148.781C19.8758 149.389 19.7134 150.002 19.6853 150.619C19.6984 151.055 19.6365 151.328 19.4999 151.436C19.3632 151.545 19.1791 151.338 18.9476 150.816C18.9295 150.793 18.9022 150.759 18.8658 150.714L7.37702 133.69C6.96816 133.085 6.62293 132.56 6.34131 132.115C6.05969 131.67 5.81891 131.322 5.61896 131.072C5.18272 130.526 4.83238 130.415 4.56796 130.737C4.3537 130.982 4.21495 130.925 4.1517 130.566C4.07027 130.184 4.04823 129.644 4.08556 128.945C4.12751 128.204 4.20363 127.437 4.31392 126.643C4.447 125.83 4.59134 125.101 4.74695 124.457C4.90256 123.812 5.06471 123.385 5.2334 123.177Z" fill="#FFFBE6"/>
<path d="M231.186 135.416C232.052 135.421 232.919 135.662 233.785 136.14C234.224 135.792 234.724 135.422 235.284 135.027L232.774 132.726C232.709 132.667 232.887 132.494 233.309 132.209C233.73 131.924 234.273 131.592 234.937 131.214C235.622 130.815 236.307 130.436 236.993 130.078C237.72 129.718 238.337 129.435 238.844 129.228C239.351 129.022 239.648 128.958 239.734 129.036L241.375 130.541C242.055 130.019 242.735 129.517 243.415 129.035C244.116 128.533 244.807 128.04 245.488 127.559C245.689 127.427 246.045 127.319 246.557 127.236C247.091 127.172 247.687 127.127 248.346 127.099C249.024 127.05 249.643 127.044 250.202 127.082L250.263 127.08L253.306 127.322C253.843 127.34 254.453 127.387 255.137 127.461C256.029 127.567 256.87 127.706 257.661 127.879C258.493 128.05 259.006 128.223 259.199 128.4C259.371 128.558 259.213 128.966 258.725 129.624C258.259 130.303 257.572 131.134 256.665 132.119C255.797 133.061 254.789 134.091 253.64 135.21C252.532 136.327 251.405 137.465 250.258 138.625L252.736 140.897C252.822 140.976 252.655 141.158 252.234 141.443C251.812 141.728 251.249 142.061 250.543 142.44C249.878 142.818 249.182 143.187 248.455 143.547C247.769 143.905 247.172 144.188 246.665 144.394C246.159 144.601 245.862 144.665 245.776 144.586L245.004 143.878C244.747 144.156 244.511 144.413 244.294 144.649L243.439 145.642C242.849 146.325 242.521 146.874 242.456 147.288C242.413 147.722 242.563 148.097 242.906 148.412C243.099 148.589 243.333 148.743 243.607 148.876C243.837 148.969 243.894 149.08 243.775 149.208C243.637 149.358 243.22 149.489 242.523 149.601C241.848 149.732 241.058 149.817 240.152 149.855C239.287 149.892 238.462 149.885 237.676 149.836C236.911 149.807 236.381 149.716 236.086 149.564C235.75 149.413 235.431 149.2 235.131 148.925C234.723 148.551 234.55 148.116 234.611 147.619C234.693 147.101 235.037 146.47 235.645 145.724L238.186 142.9C238.62 142.429 239.064 141.947 239.517 141.455C239.991 140.941 240.475 140.437 240.969 139.943L237.909 137.078C237.247 137.538 236.616 137.966 236.014 138.361C236.307 138.946 236.423 139.507 236.363 140.044C236.327 140.169 236.26 140.285 236.162 140.392C235.945 140.628 235.555 140.922 234.992 141.275C234.471 141.626 233.877 141.97 233.211 142.307C232.585 142.642 231.969 142.946 231.362 143.219C230.774 143.47 230.286 143.635 229.898 143.713C229.509 143.791 229.321 143.737 229.334 143.551C229.395 143.055 229.291 142.545 229.021 142.021C228.773 141.517 228.434 141.068 228.005 140.675C227.533 140.242 227.003 139.894 226.414 139.631C225.825 139.367 225.262 139.226 224.725 139.208C224.602 139.213 224.518 139.196 224.475 139.157C224.39 139.078 224.416 138.964 224.554 138.814C224.79 138.557 225.211 138.251 225.814 137.896C226.416 137.501 227.07 137.113 227.776 136.733C228.523 136.352 229.211 136.035 229.84 135.782C230.469 135.529 230.917 135.407 231.186 135.416ZM247.778 132.679C248.212 132.208 248.626 131.758 249.02 131.33C249.415 130.902 249.769 130.496 250.082 130.112L248.469 129.995C247.626 130.566 246.784 131.136 245.942 131.707C245.1 132.278 244.248 132.859 243.386 133.451L245.441 135.216C245.835 134.788 246.23 134.36 246.624 133.932C247.019 133.503 247.403 133.086 247.778 132.679Z" fill="#FFFBE6"/>
<path d="M214.604 120.275C215.037 120.277 215.473 120.341 215.912 120.466C216.863 119.562 217.646 118.798 218.259 118.176C218.913 117.551 219.506 116.95 220.039 116.372C220.593 115.814 221.206 115.191 221.878 114.504C222.591 113.815 223.482 112.934 224.551 111.86C225.183 111.216 225.884 110.713 226.653 110.351C227.443 110.009 228.165 109.783 228.821 109.673C227.762 109.018 226.541 108.453 225.16 107.976C224.888 107.884 224.912 107.729 225.233 107.51C225.575 107.31 226.081 107.083 226.751 106.828C227.44 106.552 228.172 106.295 228.946 106.057C229.741 105.838 230.466 105.673 231.122 105.563C231.777 105.454 232.21 105.435 232.419 105.509C233.194 105.785 233.973 106.163 234.757 106.645C235.582 107.125 236.348 107.689 237.056 108.338C238.151 109.342 239.045 110.477 239.738 111.744C240.452 113.031 240.796 114.334 240.77 115.652C240.784 116.968 240.269 118.194 239.224 119.329C238.297 120.335 236.89 121.217 235.004 121.976C233.14 122.754 230.667 123.312 227.587 123.647C227.238 123.683 226.899 123.707 226.57 123.721C226.299 125.605 226.216 127.306 226.322 128.825C226.449 130.363 226.845 131.437 227.51 132.047C227.66 132.184 227.83 132.28 228.017 132.334L228.05 132.364C228.136 132.442 228.09 132.578 227.912 132.771C227.676 133.028 227.215 133.356 226.531 133.755C225.887 134.153 225.172 134.543 224.384 134.926C223.636 135.307 222.938 135.615 222.288 135.848C221.679 136.079 221.29 136.157 221.122 136.082C221.079 136.043 221.025 135.994 220.961 135.935C220.898 135.917 220.845 135.888 220.803 135.849C220.352 135.436 220.03 134.667 219.838 133.543C219.668 132.439 219.612 131.125 219.671 129.599C219.73 128.074 219.9 126.472 220.179 124.793C220.459 123.115 220.855 121.503 221.367 119.958C220.989 120.283 220.581 120.64 220.143 121.029C219.726 121.396 219.269 121.806 218.772 122.26C219.509 123.093 219.845 123.974 219.782 124.903C219.746 125.028 219.678 125.144 219.58 125.251C219.284 125.572 218.774 125.953 218.05 126.396C217.327 126.838 216.54 127.262 215.691 127.668C214.883 128.073 214.183 128.359 213.592 128.528C213.021 128.676 212.741 128.636 212.752 128.409C212.792 127.893 212.677 127.373 212.407 126.85C212.159 126.346 211.82 125.897 211.391 125.503C210.919 125.071 210.389 124.723 209.8 124.459C209.233 124.216 208.68 124.085 208.143 124.066C208.02 124.071 207.937 124.054 207.894 124.015C207.808 123.936 207.854 123.801 208.031 123.608C208.268 123.351 208.677 123.035 209.26 122.661C209.863 122.306 210.518 121.939 211.224 121.559C211.93 121.18 212.587 120.874 213.196 120.643C213.825 120.39 214.294 120.267 214.604 120.275ZM231.726 119.089C232.673 118.062 233.085 116.84 232.963 115.426C232.841 114.011 232.154 112.651 230.903 111.345C230.101 112.387 229.347 113.808 228.639 115.608C227.953 117.427 227.404 119.313 226.991 121.265C228.078 121.116 229.016 120.85 229.804 120.467C230.592 120.084 231.233 119.625 231.726 119.089Z" fill="#FFFBE6"/>
<path d="M200.195 115.891C199.407 115.801 198.741 115.664 198.197 115.481C197.614 115.341 197.256 115.171 197.124 114.971C195.681 113.056 195.039 111.283 195.196 109.65C195.395 108.016 196.106 106.535 197.329 105.208C198.453 103.987 199.881 102.888 201.613 101.909C203.346 100.931 205.207 100.07 207.197 99.3278C209.208 98.605 211.194 97.9965 213.153 97.5023C215.132 96.9866 216.9 96.5931 218.456 96.3216C220.053 96.0485 221.274 95.8838 222.117 95.8277C222.282 95.8207 222.405 95.8155 222.488 95.812C223.184 95.7003 223.526 95.7373 223.513 95.9231C223.497 96.0267 223.491 96.1195 223.494 96.2017C223.424 99.415 222.932 102.162 222.018 104.444C221.145 106.724 220.009 108.624 218.609 110.144C217.327 111.536 215.899 112.656 214.326 113.504C212.773 114.331 211.159 114.945 209.485 115.345C207.81 115.745 206.17 115.978 204.564 116.046C202.978 116.093 201.521 116.041 200.195 115.891ZM205.848 104.725C204.842 105.817 204.216 107.099 203.969 108.57C203.722 110.042 204.185 111.73 205.359 113.636C206.227 113.681 207.212 113.558 208.314 113.264C209.415 112.971 210.449 112.299 211.415 111.25C212.322 110.265 213.098 108.864 213.743 107.047C214.388 105.229 214.772 102.836 214.893 99.8675C214.2 100.061 213.295 100.357 212.177 100.754C211.081 101.17 209.959 101.701 208.81 102.347C207.683 103.012 206.696 103.804 205.848 104.725Z" fill="#FFFBE6"/>
<path d="M184.859 102.78C183.94 101.543 183.059 100.479 182.217 99.5885C181.416 98.6963 180.672 97.9354 179.985 97.3058C178.741 96.1647 177.739 95.4044 176.98 95.0248C176.243 94.6649 175.823 94.4769 175.719 94.4607C175.678 94.4624 175.636 94.4436 175.593 94.4043C175.507 94.3256 175.543 94.2006 175.701 94.0293C175.977 93.7295 176.497 93.3577 177.262 92.9139C178.006 92.4503 178.802 92.0155 179.651 91.6092C180.5 91.203 181.2 90.9162 181.75 90.749C182.504 90.0586 183.438 89.2166 184.551 88.2231C185.664 87.2295 186.817 86.2136 188.011 85.1754C189.224 84.1159 190.369 83.1313 191.444 82.2216C192.539 81.2905 193.436 80.553 194.135 80.009C194.314 79.8574 194.557 79.7443 194.863 79.6696C194.396 79.36 193.899 79.062 193.371 78.7756C193.16 78.6611 193.235 78.4932 193.597 78.2722C194 78.0494 194.548 77.8205 195.239 77.5856C195.95 77.3292 196.693 77.1023 197.469 76.905C198.264 76.6862 198.969 76.5227 199.583 76.4145C200.197 76.3063 200.589 76.3103 200.759 76.4266C201.856 76.9977 202.887 77.7259 203.853 78.6112C204.969 79.6343 205.905 80.7884 206.661 82.0736C207.416 83.3587 207.812 84.6694 207.848 86.0055C207.904 87.3202 207.409 88.545 206.364 89.6797C205.733 90.3649 204.883 90.9873 203.813 91.5469C202.764 92.085 201.443 92.5523 199.85 92.9488C200.379 94.223 200.655 95.3843 200.679 96.4328C200.724 97.501 200.372 98.442 199.623 99.2556C199.011 99.9193 198.077 100.504 196.82 101.01C195.603 101.514 194.002 101.942 192.016 102.293C191.486 102.439 190.832 102.569 190.053 102.684C189.315 102.798 188.556 102.892 187.775 102.966C187.014 103.018 186.365 103.035 185.828 103.017C185.291 102.998 184.968 102.92 184.859 102.78ZM199.022 89.4647C199.89 88.5226 200.191 87.3575 199.926 85.9693C199.702 84.5794 198.89 83.1834 197.49 81.7813C197.09 82.0863 196.661 82.4234 196.202 82.7926C195.765 83.1814 195.308 83.5917 194.831 84.0234C195.455 85.1084 196.076 86.1523 196.696 87.1551C197.317 88.1579 197.873 89.1222 198.366 90.048C198.606 89.8732 198.825 89.6788 199.022 89.4647ZM185.379 92.4171C186.816 93.7353 188.857 96.1392 191.501 99.6291C191.786 99.5347 191.997 99.4126 192.135 99.2627C192.392 98.9844 192.484 98.4969 192.414 97.8002C192.363 97.0821 192.051 96.0457 191.477 94.6911C190.904 93.3365 189.993 91.5331 188.742 89.281C187.946 89.9731 187.24 90.5894 186.624 91.1299C186.048 91.6686 185.601 92.0682 185.282 92.3286L185.379 92.4171Z" fill="#FFFBE6"/>
<path d="M134.802 32.1187C134.711 32.1187 134.638 24.928 134.638 16.0603C134.638 7.1894 134.711 0 134.802 0C134.892 0 134.965 7.18878 134.965 16.0603C134.965 24.928 134.892 32.1187 134.802 32.1187Z" fill="white"/>
<path d="M104.364 40.7391C104.3 40.8029 99.7916 36.4079 94.2946 30.9231C88.7957 25.437 84.391 20.94 84.4549 20.8762C84.5189 20.8124 89.0265 25.2068 94.5253 30.6929C100.022 36.177 104.428 40.6753 104.364 40.7391Z" fill="white"/>
<path d="M180.987 21.1722C181.051 21.2354 176.113 26.3417 169.959 32.5753C163.803 38.8114 158.761 43.8145 158.698 43.7513C158.634 43.6881 163.57 38.583 169.727 32.347C175.881 26.1128 180.923 21.109 180.987 21.1722Z" fill="white"/>
<path d="M116.427 31.7852C116.349 31.829 115.004 29.5827 113.425 26.7677C111.845 23.9522 110.628 21.6351 110.707 21.5907C110.786 21.5469 112.129 23.7926 113.709 26.6082C115.289 29.4232 116.506 31.7415 116.427 31.7852Z" fill="white"/>
<path d="M158.666 19.6171C158.705 19.6471 158.204 20.3508 157.428 21.5075C156.652 22.6641 155.615 24.2843 154.576 26.1359C153.538 27.9888 152.696 29.7184 152.115 30.9833C151.532 32.2481 151.193 33.0419 151.147 33.0238C151.126 33.0157 151.186 32.8074 151.312 32.4377C151.437 32.0667 151.637 31.5381 151.903 30.8913C152.433 29.5977 153.247 27.8405 154.291 25.9764C155.337 24.1141 156.411 22.5027 157.239 21.3755C157.653 20.8113 158 20.364 158.251 20.0637C158.501 19.7635 158.647 19.6039 158.666 19.6171Z" fill="white"/>
<path d="M183.727 53.4173C183.753 53.503 181.55 54.2774 178.804 55.1463C176.058 56.0158 173.81 56.6507 173.782 56.565C173.755 56.4793 175.958 55.7055 178.705 54.836C181.45 53.9665 183.699 53.3316 183.727 53.4173Z" fill="white"/>
<path d="M84.4801 57.089C84.4644 57.1778 82.2875 56.8682 79.6176 56.3984C76.9472 55.928 74.7959 55.4757 74.8116 55.3869C74.8273 55.2987 77.0043 55.6077 79.6741 56.0775C82.3439 56.5479 84.4958 57.0008 84.4801 57.089Z" fill="white"/>
<path d="M142.493 131.739C142.493 131.739 141.373 130.489 142.635 128.477C142.635 128.477 140.525 123.858 140.511 123.828C140.497 123.798 137.341 127.403 141.032 130.701L142.493 131.739Z" fill="#FF725E"/>
<path opacity="0.3" d="M142.493 131.739C142.493 131.739 141.373 130.489 142.635 128.477C142.635 128.477 140.525 123.858 140.511 123.828C140.497 123.798 137.341 127.403 141.032 130.701L142.493 131.739Z" fill="black"/>
<path d="M151.297 146.174C150.595 146.105 130.167 102.598 125.841 88.0154C121.515 73.4326 124.822 50.4015 126.923 46.6502C128.608 43.6414 130.499 43.7526 130.499 43.7526C130.499 43.7526 130.971 39.5534 132.887 38.302C134.513 37.2386 136.028 38.239 136.028 38.239C138.733 35.1416 142.252 37.3273 142.479 40.4928C142.479 40.4928 145.474 37.2332 148.136 42.5516C150.799 47.87 153.461 65.0262 153.461 65.0262C153.461 65.0262 153.461 57.6461 158.426 57.9352C158.734 57.9532 158.996 58.175 159.068 58.4746L160.016 64.7443C160.016 64.7443 161.49 69.9099 162.488 71.6255C163.486 73.341 165.274 89.7968 164.608 91.308C163.943 92.8192 158.785 104.657 158.286 107.059C157.787 109.461 158.12 111.176 159.118 112.549C160.116 113.921 173.26 132.107 173.26 132.107C173.26 132.107 166.937 147.718 151.297 146.174Z" fill="#AE7461"/>
<g opacity="0.2">
<path d="M132.752 38.5958C133.124 39.3664 133.319 40.2219 133.316 41.0774C134.217 40.7755 135.217 40.7476 136.117 41.0501C137.018 41.3525 137.81 41.9939 138.245 42.8366C138.608 43.5399 138.716 44.3421 138.834 45.1247C139.172 47.3805 139.635 49.6175 140.221 51.8222H135.527L131.316 46.4634L130.499 43.7523C130.949 41.1612 131.572 39.0739 132.752 38.5958Z" fill="black"/>
</g>
<path d="M155.441 83.2532C155.437 83.2561 155.39 83.1876 155.303 83.0545C155.219 82.9202 155.106 82.7147 154.984 82.4387C154.744 81.8863 154.507 81.031 154.449 79.9529C154.371 78.8747 154.504 77.5941 154.603 76.1833C154.648 75.4774 154.678 74.7342 154.616 73.9702C154.539 73.2082 154.433 72.4117 154.319 71.6041C154.202 70.7956 154.062 70.01 153.876 69.2639C153.664 68.5204 153.551 67.7712 153.49 67.0637C153.366 65.6431 153.448 64.3537 153.62 63.2913C153.796 62.2279 154.067 61.3924 154.303 60.8396C154.407 60.5568 154.526 60.3538 154.592 60.2104C154.663 60.069 154.702 59.9961 154.707 59.9983C154.712 60.0006 154.681 60.0782 154.619 60.2233C154.561 60.3704 154.451 60.5762 154.357 60.8607C154.138 61.4172 153.885 62.2507 153.724 63.3078C153.566 64.3643 153.496 65.644 153.626 67.0514C153.692 67.7561 153.803 68.4859 154.017 69.2286C154.207 69.9806 154.348 70.7711 154.467 71.5827C154.581 72.396 154.685 73.1846 154.761 73.9586C154.822 74.7342 154.789 75.484 154.74 76.1924C154.633 77.609 154.49 78.8784 154.553 79.9472C154.598 81.0159 154.816 81.8629 155.037 82.4165C155.15 82.693 155.254 82.9011 155.329 83.0394C155.407 83.1768 155.445 83.2504 155.441 83.2532Z" fill="#6F4439"/>
<path d="M144.899 90.3806C144.894 90.3795 144.9 90.3307 144.917 90.2389C144.939 90.1306 144.965 89.9983 144.997 89.8381C145.031 89.6639 145.077 89.4515 145.147 89.2089C145.215 88.966 145.28 88.6858 145.384 88.3856C145.481 88.0832 145.587 87.7516 145.726 87.4044C145.852 87.0523 146.015 86.6877 146.184 86.3026C146.539 85.5406 146.97 84.7207 147.497 83.9048C148.028 83.0912 148.597 82.3591 149.149 81.724C149.434 81.4149 149.698 81.1142 149.97 80.8568C150.232 80.5894 150.49 80.355 150.729 80.1458C150.962 79.9294 151.191 79.7547 151.388 79.5956C151.582 79.4348 151.758 79.3059 151.904 79.205C152.038 79.1118 152.149 79.0345 152.24 78.9713C152.318 78.9191 152.36 78.894 152.363 78.898C152.366 78.9023 152.33 78.9356 152.258 78.9952C152.172 79.0645 152.067 79.1486 151.94 79.2506C151.799 79.3581 151.629 79.493 151.441 79.6594C151.25 79.8236 151.027 80.0032 150.8 80.2233C150.566 80.4366 150.314 80.6737 150.058 80.9431C149.791 81.2026 149.533 81.5045 149.252 81.8135C148.71 82.4492 148.15 83.1779 147.623 83.9852C147.1 84.7948 146.668 85.6064 146.309 86.3599C146.138 86.7405 145.972 87.1008 145.841 87.4489C145.698 87.7918 145.587 88.1194 145.484 88.4181C145.374 88.7146 145.302 88.9914 145.227 89.2312C145.151 89.4706 145.096 89.6802 145.053 89.8515C145.011 90.0086 144.976 90.1386 144.947 90.2452C144.92 90.335 144.904 90.3815 144.899 90.3806Z" fill="#6F4439"/>
<path d="M158.273 107.877C158.281 107.884 158.195 107.999 158.033 108.204C157.872 108.409 157.626 108.696 157.311 109.039C156.68 109.727 155.746 110.624 154.606 111.483C153.465 112.34 152.344 112.99 151.506 113.404C151.088 113.611 150.744 113.768 150.501 113.864C150.259 113.962 150.124 114.012 150.12 114.003C150.116 113.993 150.243 113.925 150.477 113.811C150.712 113.699 151.048 113.529 151.458 113.31C152.279 112.875 153.383 112.216 154.516 111.364C155.648 110.511 156.587 109.633 157.234 108.967C157.558 108.634 157.815 108.359 157.989 108.166C158.164 107.974 158.265 107.87 158.273 107.877Z" fill="#6F4439"/>
<path d="M149.323 129.57C149.319 129.572 149.293 129.524 149.247 129.431C149.196 129.323 149.132 129.187 149.054 129.022C148.88 128.646 148.644 128.135 148.355 127.512C147.76 126.24 146.91 124.495 145.898 122.606C144.884 120.717 143.901 119.043 143.17 117.843C142.811 117.258 142.516 116.778 142.299 116.425C142.204 116.269 142.126 116.141 142.064 116.038C142.012 115.949 141.986 115.901 141.991 115.898C141.995 115.895 142.029 115.938 142.089 116.022C142.158 116.12 142.243 116.244 142.347 116.394C142.57 116.718 142.882 117.194 143.26 117.788C144.014 118.975 145.013 120.644 146.029 122.536C147.043 124.428 147.879 126.183 148.451 127.468C148.737 128.111 148.96 128.634 149.107 128.998C149.175 129.169 149.23 129.308 149.274 129.419C149.311 129.516 149.328 129.568 149.323 129.57Z" fill="#6F4439"/>
<path d="M150.034 72.0008C150.043 72.0407 149.299 72.2542 148.37 72.4774C147.441 72.7009 146.681 72.8497 146.671 72.8098C146.662 72.7699 147.407 72.5567 148.335 72.3332C149.264 72.11 150.024 71.9611 150.034 72.0008Z" fill="#6F4439"/>
<path d="M145.042 65.7737C145.04 65.7745 145.031 65.7534 145.017 65.7115C145 65.6611 144.98 65.5998 144.956 65.5248C144.905 65.3597 144.825 65.1174 144.737 64.8018C144.553 64.1718 144.308 63.2544 144.039 62.1127C143.5 59.8295 142.884 56.6435 142.437 53.0914C141.991 49.5391 141.805 46.2932 141.901 43.9456C141.946 42.7722 142.07 41.8252 142.219 41.1843C142.366 40.5418 142.539 40.2168 142.539 40.2168C142.542 40.2179 142.536 40.2402 142.523 40.2824C142.506 40.3328 142.486 40.3938 142.462 40.4685C142.431 40.5489 142.403 40.6515 142.373 40.7738C142.341 40.8953 142.303 41.0353 142.275 41.1966C142.145 41.8366 142.037 42.7796 142.006 43.949C141.937 46.2889 142.139 49.526 142.585 53.0729C143.031 56.6193 143.63 59.8033 144.142 62.089C144.398 63.2322 144.627 64.1524 144.793 64.7864C144.874 65.0937 144.938 65.3375 144.985 65.5165C145.004 65.5929 145.019 65.6556 145.032 65.7072C145.041 65.7506 145.045 65.7731 145.042 65.7737Z" fill="#6F4439"/>
<path d="M140.604 71.0613C140.602 71.0625 140.588 71.0362 140.564 70.9844C140.538 70.9245 140.504 70.8481 140.462 70.7523C140.37 70.5374 140.243 70.2366 140.081 69.854C139.999 69.6576 139.908 69.4404 139.809 69.2035C139.717 68.9617 139.618 68.7 139.511 68.4195C139.302 67.8551 139.048 67.2179 138.817 66.4964C138.696 66.1369 138.57 65.7606 138.438 65.3689C138.309 64.9761 138.194 64.5613 138.065 64.1351C137.797 63.2847 137.568 62.3605 137.313 61.3915C136.841 59.4444 136.403 57.2836 136.075 54.9944C135.76 52.7024 135.589 50.5039 135.508 48.5021C135.485 47.5006 135.453 46.5487 135.475 45.6578C135.482 45.2126 135.478 44.7821 135.495 44.369C135.513 43.9562 135.531 43.5597 135.547 43.1811C135.571 42.4239 135.64 41.7417 135.685 41.1417C135.71 40.8426 135.733 40.5638 135.755 40.3061C135.784 40.051 135.811 39.8172 135.836 39.6059C135.886 39.1937 135.926 38.8696 135.954 38.6381C135.968 38.5343 135.979 38.4517 135.988 38.387C135.997 38.3305 136.002 38.3017 136.005 38.302C136.007 38.3023 136.007 38.3317 136.003 38.389C135.998 38.4542 135.992 38.5375 135.983 38.6418C135.962 38.8739 135.932 39.1989 135.893 39.6122C135.873 39.8237 135.85 40.0575 135.825 40.3129C135.807 40.5704 135.788 40.8492 135.767 41.1485C135.731 41.7483 135.669 42.4299 135.652 43.1862C135.639 43.5642 135.624 43.9602 135.609 44.3724C135.595 44.7849 135.603 45.2146 135.598 45.659C135.581 46.5481 135.618 47.4977 135.645 48.4972C135.733 50.4945 135.908 52.6876 136.222 54.9742C136.549 57.2582 136.982 59.4148 137.446 61.3593C137.696 62.3271 137.921 63.2505 138.183 64.1009C138.309 64.5271 138.422 64.9416 138.547 65.335C138.675 65.7273 138.799 66.1038 138.916 66.4636C139.141 67.1863 139.387 67.8249 139.589 68.391C139.691 68.673 139.786 68.9358 139.875 69.1784C139.969 69.417 140.056 69.6354 140.134 69.8332C140.285 70.2201 140.404 70.524 140.489 70.7412C140.525 70.8393 140.555 70.9177 140.578 70.9789C140.598 71.0322 140.607 71.0605 140.604 71.0613Z" fill="#6F4439"/>
<path d="M132.12 72.8035C132.117 72.8038 132.11 72.7772 132.099 72.7248C132.087 72.6638 132.072 72.5871 132.053 72.4913C132.014 72.2749 131.959 71.9736 131.89 71.5913C131.75 70.8094 131.563 69.675 131.354 68.2702C131.14 66.8659 130.923 65.1879 130.713 63.3212C130.515 61.4531 130.338 59.3949 130.227 57.2294C130.004 52.896 130.135 48.9642 130.354 46.1317C130.467 44.7154 130.579 43.5711 130.683 42.7834C130.732 42.398 130.771 42.0944 130.799 41.876C130.813 41.7794 130.824 41.7022 130.833 41.6406C130.841 41.5875 130.847 41.5608 130.849 41.561C130.852 41.5613 130.851 41.589 130.848 41.6426C130.843 41.7044 130.837 41.7825 130.829 41.8798C130.808 42.0987 130.778 42.4032 130.741 42.7897C130.655 43.5788 130.559 44.7237 130.459 46.1391C130.268 48.9702 130.154 52.8951 130.376 57.222C130.487 59.384 130.66 61.44 130.85 63.3067C131.052 65.172 131.258 66.8496 131.459 68.2551C131.654 69.6611 131.825 70.7974 131.948 71.5819C132.005 71.9662 132.05 72.2689 132.083 72.4865C132.096 72.5831 132.106 72.6609 132.114 72.7222C132.12 72.7755 132.122 72.8029 132.12 72.8035Z" fill="#6F4439"/>
<path d="M152.837 68.7296C152.838 68.7322 152.816 68.7385 152.773 68.7487C152.721 68.7598 152.658 68.7735 152.581 68.7901C152.399 68.8257 152.153 68.8739 151.841 68.9352C151.198 69.0583 150.267 69.2368 149.121 69.4728C146.827 69.9384 143.669 70.6365 140.221 71.565C138.498 72.0342 136.868 72.52 135.394 72.9881C133.925 73.4725 132.606 73.9212 131.515 74.3448C130.966 74.5466 130.476 74.7445 130.046 74.9206C129.614 75.0923 129.244 75.2442 128.945 75.3776C128.653 75.5019 128.422 75.6005 128.252 75.673C128.179 75.7023 128.119 75.7266 128.07 75.7465C128.029 75.7622 128.007 75.7693 128.006 75.767C128.005 75.7648 128.024 75.7531 128.063 75.7328C128.111 75.7094 128.169 75.6809 128.239 75.6462C128.407 75.5675 128.634 75.4603 128.921 75.3252C129.217 75.1835 129.584 75.0236 130.014 74.8442C130.441 74.6607 130.93 74.4554 131.477 74.247C132.564 73.8103 133.882 73.3504 135.351 72.8581C136.825 72.382 138.457 71.8914 140.182 71.4219C143.634 70.4923 146.8 69.8095 149.1 69.3699C150.25 69.147 151.184 68.9842 151.83 68.8784C152.144 68.8288 152.393 68.7898 152.575 68.7607C152.653 68.7499 152.717 68.741 152.77 68.7339C152.814 68.7285 152.837 68.7271 152.837 68.7296Z" fill="#6F4439"/>
<g opacity="0.2">
<path d="M137.356 116.604C140.164 114.907 142.017 111.946 143.046 108.836C144.075 105.726 144.371 102.43 144.713 99.1725C145.315 93.4253 146.078 87.695 147 81.9903C147 81.9903 146.563 73.6299 145.697 67.6347C144.831 61.6393 143.477 56.2222 143 56.5318C142.523 56.8411 136.133 114.003 136.133 114.003L137.356 116.604Z" fill="black"/>
</g>
<path d="M160.973 114.982C160.973 114.982 163.86 116.368 164.764 118.214C165.666 120.059 165.526 121.408 165.526 121.408L165.29 122.979C164.734 124.807 163.927 126.443 162.67 127.857C159.39 131.547 154.688 134.086 149.65 134.84C148.402 135.026 147.129 135.05 145.884 134.841C143.733 134.479 142.2 133.593 141.158 131.858C140.7 131.193 139.394 128.654 139.37 128.256L139.85 129.115C141.259 131.078 142.411 131.525 144.207 131.936C146.042 132.355 147.971 132.163 149.799 131.722C154.078 130.689 157.932 128.29 160.731 124.9C161.87 123.52 162.831 121.934 163.094 120.17C163.094 120.17 163.659 117.289 160.973 114.982Z" fill="#FF725E"/>
<g opacity="0.2">
<path d="M154.68 73.0644C154.615 70.5047 152.94 67.2474 153.481 64.7441C152.643 65.8086 152.607 67.3021 152.863 68.6314C153.119 69.961 153.625 71.2436 153.743 72.592C153.863 73.9684 153.573 75.3444 153.509 76.7242C153.446 78.1043 153.656 79.5952 154.593 80.6118C154.293 78.025 154.754 75.9673 154.68 73.0644Z" fill="black"/>
</g>
<path d="M149.255 55.3026C149.263 55.32 149.072 55.4334 148.746 55.5817C148.421 55.7302 147.958 55.9087 147.431 56.056C146.904 56.2029 146.415 56.2898 146.059 56.3314C145.704 56.3731 145.482 56.3748 145.48 56.3557C145.475 56.3109 146.35 56.2066 147.391 55.9132C148.433 55.6253 149.236 55.2618 149.255 55.3026Z" fill="#6F4439"/>
<path d="M147.981 48.1701C147.991 48.1829 147.818 48.3466 147.486 48.5399C147.157 48.7334 146.659 48.9398 146.078 49.0339C145.497 49.126 144.959 49.0852 144.585 49.0043C144.21 48.9241 143.994 48.8227 144 48.8073C144.007 48.7579 144.919 49.0778 146.054 48.8871C147.192 48.714 147.958 48.1256 147.981 48.1701Z" fill="#6F4439"/>
<path d="M149.966 56.7148C149.974 56.755 149.083 56.9773 147.974 57.2119C146.866 57.4465 145.961 57.6039 145.952 57.5637C145.943 57.5235 146.835 57.3012 147.944 57.0665C149.052 56.8322 149.957 56.6746 149.966 56.7148Z" fill="#6F4439"/>
<g opacity="0.2">
<path d="M150.23 56.1076C150.046 55.7085 149.544 55.5908 149.109 55.5215L148.913 55.4137C147.862 55.1728 146.727 55.3214 145.773 55.824C145.524 55.9554 145.281 56.1153 145.117 56.3437C144.953 56.572 144.879 56.881 144.987 57.1407C145.129 57.484 145.525 57.6396 145.887 57.7243C146.975 57.9786 148.135 57.9133 149.187 57.5387C149.502 57.4267 149.816 57.281 150.038 57.0321C150.26 56.7832 150.37 56.4101 150.23 56.1076Z" fill="#6F4439"/>
</g>
<path d="M141.453 56.4431C141.461 56.4605 141.27 56.5739 140.945 56.7222C140.619 56.8707 140.156 57.0492 139.629 57.1966C139.102 57.3434 138.614 57.4303 138.258 57.4719C137.902 57.5136 137.68 57.5153 137.678 57.4962C137.673 57.4514 138.548 57.3468 139.589 57.0534C140.631 56.7658 141.434 56.4023 141.453 56.4431Z" fill="#6F4439"/>
<path d="M142.164 57.8553C142.173 57.8955 141.281 58.1181 140.173 58.3524C139.064 58.587 138.159 58.7444 138.15 58.7042C138.142 58.664 139.033 58.4417 140.142 58.207C141.25 57.9727 142.156 57.8151 142.164 57.8553Z" fill="#6F4439"/>
<g opacity="0.2">
<path d="M142.429 57.2488C142.245 56.8497 141.743 56.732 141.308 56.6627L141.112 56.555C140.061 56.3141 138.925 56.4626 137.971 56.9652C137.722 57.0966 137.48 57.2565 137.315 57.4849C137.151 57.7132 137.077 58.0223 137.185 58.282C137.327 58.6252 137.723 58.7808 138.085 58.8655C139.173 59.1198 140.333 59.0545 141.385 58.6799C141.7 58.5679 142.015 58.4222 142.237 58.1733C142.459 57.9245 142.568 57.5513 142.429 57.2488Z" fill="#6F4439"/>
</g>
<path d="M135.506 57.4817C135.515 57.4991 135.324 57.6126 134.998 57.7608C134.673 57.9093 134.21 58.0878 133.683 58.2352C133.156 58.382 132.667 58.4689 132.312 58.5105C131.956 58.5522 131.734 58.5539 131.732 58.5348C131.727 58.49 132.602 58.3857 133.643 58.0923C134.685 57.8044 135.487 57.4407 135.506 57.4817Z" fill="#6F4439"/>
<path d="M136.218 58.8935C136.226 58.9337 135.334 59.1563 134.226 59.3906C133.117 59.6253 132.212 59.7826 132.204 59.7424C132.195 59.7022 133.087 59.4799 134.195 59.2452C135.303 59.0109 136.209 58.8533 136.218 58.8935Z" fill="#6F4439"/>
<g opacity="0.2">
<path d="M136.482 58.2864C136.298 57.8873 135.796 57.7696 135.361 57.7003L135.165 57.5928C134.114 57.3519 132.978 57.5004 132.025 58.003C131.776 58.1345 131.533 58.2944 131.369 58.5227C131.205 58.7511 131.131 59.0601 131.239 59.3198C131.381 59.663 131.777 59.8187 132.139 59.9034C133.226 60.1577 134.387 60.0924 135.439 59.7178C135.754 59.6057 136.068 59.4601 136.29 59.2112C136.512 58.9623 136.622 58.5892 136.482 58.2864Z" fill="#6F4439"/>
</g>
<path d="M162.714 72.484C162.722 72.5242 162.012 72.6998 161.128 72.8762C160.244 73.0527 159.521 73.1633 159.513 73.1231C159.505 73.0829 160.215 72.9073 161.099 72.7308C161.983 72.5544 162.706 72.4438 162.714 72.484Z" fill="#6F4439"/>
<path d="M161.731 71.5852C161.738 71.6254 161.419 71.7209 161.017 71.7984C160.615 71.876 160.283 71.9062 160.275 71.866C160.268 71.8258 160.587 71.7303 160.989 71.6527C161.391 71.5752 161.723 71.5447 161.731 71.5852Z" fill="#6F4439"/>
<g opacity="0.2">
<path d="M159.929 64.3143C159.739 64.5669 159.259 64.7316 159.022 64.5218C158.785 64.312 158.686 63.991 158.608 63.6845C158.271 62.3492 158.142 60.9626 158.216 59.5877C158.232 59.3029 158.26 59.0053 158.414 58.765C158.568 58.5247 158.888 58.3656 159.148 58.4825L159.929 64.3143Z" fill="white"/>
</g>
<path d="M130.104 139.682C130.104 139.682 134.1 137.965 129.398 136.7C124.696 135.435 119.755 136.148 119.755 136.148L125.784 139.496L130.104 139.682Z" fill="#FF725E"/>
<path opacity="0.3" d="M130.104 139.682C130.104 139.682 134.1 137.965 129.398 136.7C124.696 135.435 119.755 136.148 119.755 136.148L125.784 139.496L130.104 139.682Z" fill="black"/>
<path d="M89.8433 77.8391C89.8433 77.8391 86.6641 78.71 88.3503 81.7578C89.5841 83.9882 90.8863 86.3657 91.6118 89.9038C91.9347 91.478 93.8143 93.3681 94.4312 94.6498C96.0863 98.0901 97.6158 100.952 100.099 103.842C102.582 106.731 110.305 111.823 110.168 115.401C110.03 118.978 100.136 141.737 100.136 141.737C107.89 146.449 116.809 147.962 126.343 147.791C126.343 147.791 133.202 122.969 134.168 119.116C135.133 115.263 138.901 112.034 141.384 106.254C143.867 100.474 144.649 87.9818 144.926 78.1088C145.158 69.833 143.316 60.822 143.278 58.0414C143.264 56.9435 143.098 55.8497 142.732 54.8146C142.139 53.1372 140.924 51.2138 138.48 51.3711C138.48 51.3711 138.511 43.8651 137.242 41.2749C136.777 40.3244 135.197 39.7537 133.987 40.0479C133.009 40.2859 132.294 40.817 132.294 40.817C132.294 40.817 132.897 34.8481 129.863 34.2976C128.48 34.0467 127.165 34.2491 126.375 35.4354C125.431 36.8519 125.026 39.1297 124.876 41.6013C124.876 41.6013 124.577 40.1197 122.144 40.1197C120.585 40.1197 119.368 41.2794 118.72 43.7069C117.616 47.8351 112.471 71.7852 111.547 74.8064C110.898 76.9288 105.892 91.7323 104.513 91.7323C103.134 91.7323 101.69 90.4934 100.862 88.2917C100.034 86.0898 95.7742 76.0502 89.8433 77.8391Z" fill="#FFBF9D"/>
<path d="M118.328 74.6398C118.326 74.6381 118.343 74.613 118.379 74.5648C118.42 74.5107 118.472 74.4408 118.539 74.353C118.684 74.1586 118.889 73.8852 119.15 73.5371C119.412 73.1805 119.729 72.7412 120.079 72.2195C120.423 71.6961 120.821 71.096 121.148 70.3816C121.316 70.0253 121.411 69.631 121.465 69.2014C121.532 68.7769 121.58 68.3299 121.632 67.8684C121.733 66.9444 121.817 65.9538 121.909 64.9121C122.083 62.8259 122.274 60.5342 122.474 58.1281C122.528 57.5263 122.584 56.932 122.649 56.3467C122.709 55.764 122.787 55.179 122.911 54.6228C123.134 53.5128 123.287 52.4212 123.447 51.3886C123.746 49.3198 124.016 47.456 124.244 45.8869C124.465 44.3276 124.644 43.0621 124.77 42.1758C124.833 41.7456 124.883 41.4078 124.918 41.1675C124.936 41.0589 124.95 40.9728 124.96 40.9058C124.97 40.8471 124.977 40.8169 124.98 40.8171C124.982 40.8174 124.981 40.8482 124.975 40.9075C124.968 40.9751 124.959 41.062 124.948 41.1712C124.919 41.4124 124.879 41.7513 124.827 42.1832C124.713 43.0712 124.549 44.3387 124.348 45.9009C124.139 47.4697 123.886 49.3372 123.582 51.4086C123.425 52.4443 123.277 53.5304 123.054 54.6539C122.931 55.2098 122.856 55.7754 122.797 56.3627C122.732 56.9462 122.676 57.54 122.622 58.1413C122.418 60.5467 122.223 62.8379 122.046 64.9238C121.95 65.9661 121.861 66.9564 121.754 67.8818C121.7 68.3444 121.649 68.7912 121.578 69.2193C121.523 69.6467 121.418 70.0657 121.244 70.4247C120.905 71.1482 120.501 71.7443 120.148 72.266C119.79 72.7851 119.466 73.2201 119.197 73.5719C118.926 73.9234 118.711 74.1917 118.562 74.3715C118.491 74.4556 118.435 74.5223 118.391 74.5745C118.351 74.6193 118.33 74.6415 118.328 74.6398Z" fill="#FF9A6C"/>
<path d="M139.048 51.3107C139.048 51.3133 139.024 51.3244 138.975 51.3441C138.919 51.3658 138.848 51.3931 138.759 51.427C138.665 51.4644 138.558 51.5314 138.426 51.5981C138.307 51.6865 138.159 51.7731 138.026 51.9125C137.746 52.174 137.473 52.5674 137.275 53.0756C137.072 53.5822 136.943 54.1971 136.88 54.8828C136.746 56.2571 136.875 57.9071 137.098 59.7208C137.198 60.6305 137.365 61.5772 137.388 62.5864C137.387 63.085 137.384 63.5933 137.35 64.1104C137.319 64.6298 137.208 65.1484 137.108 65.6638C137.011 66.1821 136.914 66.6955 136.869 67.2026C136.821 67.7115 136.81 68.2178 136.807 68.7144C136.803 69.7087 136.843 70.6686 136.887 71.5826C136.936 72.4965 136.983 73.3651 137.027 74.179C137.072 74.9941 137.051 75.7567 137.025 76.4482C136.971 77.8334 136.892 78.9515 136.835 79.7243C136.804 80.1018 136.78 80.3991 136.762 80.6135C136.753 80.7079 136.745 80.784 136.739 80.8444C136.732 80.8963 136.728 80.9228 136.725 80.9228C136.723 80.9225 136.722 80.8957 136.723 80.8436C136.726 80.7828 136.729 80.7064 136.732 80.6118C136.743 80.3971 136.758 80.0992 136.777 79.7212C136.816 78.9478 136.879 77.8289 136.92 76.4454C136.938 75.7532 136.954 74.9972 136.903 74.1856C136.855 73.372 136.804 72.5036 136.75 71.59C136.701 70.6752 136.659 69.7133 136.661 68.7144C136.663 68.2149 136.674 67.7058 136.721 67.1898C136.767 66.6712 136.864 66.1567 136.961 65.6364C137.063 65.1156 137.171 64.6099 137.202 64.1001C137.236 63.5904 137.24 63.0838 137.241 62.5867C137.221 61.6017 137.058 60.6467 136.961 59.7373C136.746 57.9194 136.626 56.2597 136.775 54.8725C136.845 54.1806 136.983 53.5583 137.197 53.0449C137.406 52.53 137.693 52.1309 137.986 51.8703C138.125 51.7312 138.28 51.646 138.403 51.5602C138.539 51.4963 138.65 51.4325 138.748 51.3994C138.839 51.3709 138.912 51.3478 138.97 51.3296C139.021 51.3144 139.047 51.3082 139.048 51.3107Z" fill="#FF9A6C"/>
<path d="M129.236 75.4473C129.233 75.4482 129.217 75.4077 129.187 75.327C129.155 75.2378 129.113 75.1184 129.058 74.9656C128.945 74.6357 128.784 74.1634 128.575 73.5527L128.573 73.5462L128.573 73.539C128.704 72.1065 128.902 69.9308 129.145 67.2665C129.205 66.598 129.279 65.8995 129.334 65.1754C129.388 64.4502 129.418 63.6959 129.455 62.9185C129.497 62.1417 129.53 61.3389 129.666 60.5233C129.701 60.3197 129.745 60.1156 129.805 59.9132C129.832 59.8114 129.875 59.7128 129.909 59.6122L130.01 59.3242C130.123 58.9274 130.204 58.5141 130.278 58.0967C130.481 56.9039 130.615 55.7269 130.724 54.5894C130.831 53.4517 130.913 52.3516 130.948 51.303C130.955 49.1986 131.163 47.308 131.345 45.7292C131.536 44.1496 131.745 42.8773 131.948 42.0095C132.05 41.5759 132.149 41.243 132.244 41.0269C132.291 40.9185 132.338 40.8413 132.374 40.7917C132.416 40.7469 132.438 40.7255 132.439 40.7275C132.441 40.7295 132.423 40.7546 132.386 40.8005C132.356 40.8518 132.314 40.9297 132.272 41.0383C132.187 41.2549 132.097 41.5885 132.005 42.0221C131.82 42.8901 131.627 44.1627 131.449 45.7415C131.282 47.3214 131.085 49.2043 131.085 51.3073C131.054 52.3604 130.975 53.4625 130.87 54.6031C130.763 55.7434 130.629 56.9222 130.426 58.1221C130.35 58.5426 130.269 58.9588 130.153 59.3664C130.084 59.5737 130.008 59.7655 129.948 59.9554C129.89 60.1501 129.847 60.3491 129.812 60.5484C129.677 61.3492 129.642 62.1502 129.599 62.9256C129.559 63.7022 129.527 64.4576 129.471 65.1854C129.413 65.9141 129.335 66.6117 129.272 67.2793C129.004 69.9408 128.786 72.1142 128.642 73.545L128.64 73.5313C128.836 74.1465 128.987 74.6223 129.093 74.9544C129.14 75.1095 129.177 75.2307 129.205 75.3213C129.228 75.404 129.239 75.4465 129.236 75.4473Z" fill="#FF9A6C"/>
<path d="M134.951 62.4319C134.957 62.4376 134.92 62.4892 134.82 62.5305C134.721 62.5733 134.564 62.5861 134.383 62.5804C134.019 62.5761 133.516 62.5451 132.966 62.4618C132.416 62.3794 131.925 62.2634 131.576 62.1602C131.227 62.0573 131.018 61.9723 131.024 61.9538C131.037 61.9116 131.899 62.1545 132.988 62.315C133.532 62.3974 134.028 62.4444 134.388 62.4755C134.568 62.4943 134.708 62.4972 134.803 62.4752C134.897 62.455 134.944 62.4222 134.951 62.4319Z" fill="#FF9A6C"/>
<path d="M135.634 64.0923C135.636 64.1103 135.348 64.1519 134.879 64.163C134.411 64.1747 133.761 64.1456 133.053 64.0305C132.346 63.9142 131.72 63.7343 131.28 63.5741C130.839 63.4141 130.58 63.2833 130.587 63.2665C130.595 63.2454 130.868 63.3412 131.313 63.4743C131.757 63.6077 132.379 63.7691 133.077 63.8839C133.775 63.9974 134.416 64.0427 134.88 64.0578C135.344 64.0738 135.633 64.0695 135.634 64.0923Z" fill="#FF9A6C"/>
<path d="M135.637 60.8001C135.624 60.8451 134.62 60.5401 133.34 60.4303C132.06 60.3123 131.018 60.4355 131.013 60.389C131.011 60.3708 131.269 60.3163 131.692 60.2781C132.115 60.2396 132.706 60.2254 133.353 60.2827C134 60.3408 134.579 60.4586 134.988 60.5715C135.398 60.6835 135.643 60.7824 135.637 60.8001Z" fill="#FF9A6C"/>
<path d="M142.521 68.9425C142.526 68.9605 142.305 69.0426 141.934 69.1273C141.563 69.2122 141.04 69.2912 140.458 69.306C139.876 69.3197 139.349 69.2664 138.975 69.2C138.6 69.1335 138.375 69.0625 138.379 69.0443C138.388 68.9984 139.307 69.19 140.455 69.1578C141.602 69.1335 142.511 68.8972 142.521 68.9425Z" fill="#FF9A6C"/>
<path d="M141.384 68.2089C141.381 68.2497 140.79 68.246 140.063 68.2001C139.335 68.1544 138.748 68.084 138.751 68.0433C138.753 68.0025 139.345 68.0062 140.072 68.0521C140.799 68.0977 141.386 68.1681 141.384 68.2089Z" fill="#FF9A6C"/>
<path d="M141.221 70.4017C141.231 70.4402 140.876 70.552 140.421 70.5685C139.966 70.5867 139.604 70.5026 139.61 70.4636C139.615 70.4214 139.975 70.4382 140.415 70.4202C140.855 70.4046 141.213 70.3601 141.221 70.4017Z" fill="#FF9A6C"/>
<path d="M127.896 58.5071C127.905 58.5425 127.13 58.7207 126.16 58.6577C125.189 58.6004 124.442 58.3278 124.456 58.2936C124.468 58.2497 125.219 58.4535 126.169 58.5094C127.119 58.5719 127.89 58.4624 127.896 58.5071Z" fill="#FF9A6C"/>
<path d="M128.006 59.9063C128.011 59.9225 127.776 60.026 127.373 60.1255C126.972 60.2256 126.399 60.3088 125.765 60.2909C125.13 60.2715 124.563 60.1549 124.168 60.0311C123.772 59.908 123.543 59.7911 123.55 59.7751C123.564 59.7278 124.521 60.1124 125.769 60.1423C127.016 60.1859 127.995 59.8584 128.006 59.9063Z" fill="#FF9A6C"/>
<path d="M128.819 57.1572C128.803 57.1766 128.603 57.0075 128.231 56.8262C127.86 56.6406 127.31 56.4696 126.683 56.3633C126.056 56.2572 125.476 56.1911 125.063 56.1016C124.649 56.0166 124.403 55.9242 124.408 55.9063C124.414 55.8849 124.667 55.9405 125.081 55.9984C125.495 56.0608 126.072 56.1098 126.709 56.2173C127.346 56.3251 127.911 56.5178 128.28 56.7336C128.652 56.9451 128.83 57.1464 128.819 57.1572Z" fill="#FF9A6C"/>
<path d="M118.492 60.2208C118.497 60.2601 117.933 60.3522 117.23 60.3513C116.526 60.3522 115.962 60.2601 115.967 60.2208C115.971 60.1786 116.535 60.2037 117.23 60.2028C117.924 60.2039 118.488 60.1786 118.492 60.2208Z" fill="#FF9A6C"/>
<path d="M119.454 61.5417C119.461 61.5582 119.304 61.6449 119.027 61.7284C118.751 61.8131 118.355 61.8809 117.916 61.894C117.037 61.912 116.34 61.7903 116.343 61.758C116.346 61.7087 117.052 61.7637 117.911 61.7458C118.775 61.7352 119.44 61.5038 119.454 61.5417Z" fill="#FF9A6C"/>
<g opacity="0.2">
<path d="M124.043 42.1192C124.049 42.8131 123.962 43.4163 123.709 44.0729C123.456 44.7294 123.216 45.11 122.676 45.3939C122.305 45.5886 121.893 45.6237 121.497 45.5755C121.071 45.5236 120.632 45.3608 120.352 44.9691C120.083 44.594 120 44.0711 119.927 43.5737C119.851 43.0603 119.779 42.5038 119.97 42.0286C120.105 41.6893 120.358 41.4405 120.626 41.2574C121.527 40.6422 122.464 40.7563 123.503 41.0867C123.698 41.1488 123.856 41.3147 123.931 41.5328C123.989 41.7019 124.042 41.9123 124.043 42.1192Z" fill="white"/>
</g>
<g opacity="0.2">
<path d="M136.432 42.1192C136.437 42.8131 136.351 43.4163 136.098 44.0729C135.845 44.7294 135.605 45.11 135.064 45.3939C134.693 45.5886 134.281 45.6237 133.885 45.5755C133.46 45.5236 133.021 45.3608 132.74 44.9691C132.472 44.594 132.389 44.0711 132.316 43.5737C132.24 43.0603 132.168 42.5038 132.359 42.0286C132.494 41.6893 132.747 41.4405 133.015 41.2574C133.916 40.6422 134.853 40.7563 135.892 41.0867C136.087 41.1488 136.245 41.3147 136.32 41.5328C136.377 41.7019 136.431 41.9123 136.432 42.1192Z" fill="white"/>
</g>
<g opacity="0.2">
<path d="M137.512 53.9952C137.507 54.6891 137.594 55.2923 137.847 55.9488C138.1 56.6054 138.34 56.9859 138.88 57.2699C139.251 57.4646 139.663 57.4996 140.059 57.4515C140.485 57.3996 140.924 57.2371 141.204 56.8451C141.473 56.47 141.556 55.9471 141.629 55.4497C141.705 54.9362 141.776 54.3798 141.586 53.9045C141.45 53.5653 141.198 53.3164 140.929 53.1334C140.028 52.5182 139.092 52.6323 138.052 52.9627C137.857 53.0248 137.7 53.1907 137.625 53.4088C137.567 53.5778 137.514 53.7885 137.512 53.9952Z" fill="white"/>
</g>
<g opacity="0.2">
<path d="M131.133 36.6919C131.144 37.4271 131.047 38.0657 130.755 38.7595C130.462 39.4531 130.184 39.8548 129.551 40.1516C129.116 40.3551 128.633 40.3893 128.167 40.3352C127.667 40.277 127.151 40.1014 126.818 39.684C126.5 39.2846 126.399 38.7299 126.309 38.2025C126.216 37.658 126.128 37.0679 126.348 36.5656C126.505 36.2072 126.8 35.9453 127.114 35.7531C128.167 35.108 129.268 35.2354 130.491 35.5935C130.721 35.6607 130.907 35.8378 130.997 36.0693C131.066 36.2491 131.13 36.4726 131.133 36.6919Z" fill="white"/>
</g>
<path d="M103.866 94.65C103.846 94.6497 103.829 94.4727 103.827 94.1856C103.826 93.8991 103.84 93.5 103.92 93.0644C104 92.6285 104.149 92.2476 104.303 91.9993C104.455 91.7496 104.589 91.6262 104.602 91.637C104.621 91.6518 104.518 91.7964 104.396 92.0492C104.271 92.3009 104.144 92.6684 104.066 93.0918C103.92 93.9393 103.918 94.6526 103.866 94.65Z" fill="#FF9A6C"/>
<path d="M111.218 109.604C111.19 109.634 109.565 108.158 107.589 106.309C105.614 104.458 104.035 102.934 104.063 102.904C104.091 102.874 105.715 104.35 107.692 106.2C109.667 108.05 111.246 109.574 111.218 109.604Z" fill="#FF9A6C"/>
<path d="M95.3657 88.5991C95.3812 88.6421 94.6771 88.8879 93.9104 89.3771C93.1398 89.8606 92.6172 90.3911 92.5849 90.3592C92.5557 90.3369 93.0412 89.7479 93.831 89.2519C94.6168 88.7505 95.358 88.5634 95.3657 88.5991Z" fill="#FF9A6C"/>
<path d="M97.0948 87.9818C97.1077 87.9698 97.2071 88.3019 96.9917 88.7637C96.89 88.9909 96.7245 89.2381 96.5213 89.4884C96.3202 89.7413 96.0844 90.0081 95.8193 90.2709C95.2889 90.7975 94.7417 91.2011 94.3274 91.4591C93.9133 91.7188 93.6356 91.8408 93.6273 91.8252C93.6159 91.8049 93.8742 91.651 94.2688 91.3719C94.664 91.0942 95.1921 90.684 95.7141 90.1657C96.2282 89.6435 96.6768 89.1372 96.8965 88.7184C97.1245 88.2951 97.0677 87.9803 97.0948 87.9818Z" fill="#FF9A6C"/>
<path d="M93.8095 86.8689C93.8349 86.9028 93.3692 87.2911 92.8128 87.7883C92.2553 88.2843 91.8161 88.7025 91.7856 88.6735C91.7564 88.6467 92.1508 88.1786 92.7137 87.6777C93.2754 87.1754 93.7861 86.837 93.8095 86.8689Z" fill="#FF9A6C"/>
<path opacity="0.2" d="M90.267 84.3404C90.4031 84.3857 93.0888 82.7585 92.7713 81.8086C92.4539 80.8588 90.6142 78.3079 89.6164 78.41C88.6186 78.5123 88.1403 79.3604 88.2311 80.4463C88.3217 81.5321 90.267 84.3404 90.267 84.3404Z" fill="white"/>
<g opacity="0.2">
<path d="M121.654 68.0432L123.55 50.4348C121.777 55.9057 121.242 62.2441 121.654 68.0432Z" fill="black"/>
</g>
<g opacity="0.2">
<path d="M128.81 70.4891C128.664 64.4623 129.356 58.4161 130.859 52.5771C130.987 54.1608 130.561 56.9197 130.151 58.8095C129.94 59.7796 129.694 59.9883 129.614 60.7999C129.103 65.9957 129.217 67.2361 128.81 70.4891Z" fill="black"/>
</g>
<path opacity="0.4" d="M104.497 142.744C104.497 142.744 113.58 117.664 113.198 113.465C112.815 109.265 110.312 108.756 107.64 106.254C104.978 103.761 94.8733 95.4715 94.8044 95.415C96.3226 98.5172 97.8036 101.171 100.098 103.842C102.581 106.732 110.305 111.823 110.168 115.401C110.029 118.979 100.136 141.737 100.136 141.737L104.497 142.744Z" fill="#FF9A6C"/>
<g opacity="0.4">
<path d="M136.949 77.02C135.989 70.8148 135.924 64.4724 136.757 58.2491C137.147 59.8826 137.294 61.5737 137.192 63.2497C137.097 64.8176 136.785 66.3647 136.642 67.9292C136.412 70.4467 136.621 72.9816 136.829 75.5011" fill="#FF9A6C"/>
</g>
<g opacity="0.2">
<path d="M133.702 60.4586C132.824 59.8925 131.517 60.145 130.914 60.998C130.312 61.8506 130.512 63.1637 131.342 63.7986C131.859 64.194 132.531 64.3211 133.18 64.377C133.669 64.4192 134.17 64.4266 134.641 64.29C135.111 64.1532 135.554 63.8544 135.769 63.4143C136.053 62.8322 135.887 62.1129 135.524 61.577C134.987 60.7853 134.027 60.2984 133.07 60.332" fill="#FF9A6C"/>
</g>
<g opacity="0.2">
<path d="M118.873 59.4662C117.995 58.9 116.688 59.1526 116.085 60.0056C115.483 60.8582 115.683 62.1713 116.513 62.8061C117.03 63.2015 117.702 63.3287 118.351 63.3846C118.84 63.4268 119.341 63.4342 119.812 63.2976C120.283 63.1608 120.725 62.862 120.94 62.4219C121.224 61.84 121.058 61.1205 120.694 60.5845C120.158 59.7929 119.198 59.306 118.241 59.3396" fill="#FF9A6C"/>
</g>
<g opacity="0.2">
<path d="M126.673 56.286C125.795 55.5667 124.488 55.8877 123.886 56.971C123.283 58.0543 123.484 59.7223 124.314 60.5288C124.831 61.0311 125.503 61.1924 126.152 61.2637C126.64 61.3173 127.141 61.3267 127.612 61.1531C128.083 60.9792 128.525 60.5998 128.74 60.0407C129.024 59.3015 128.859 58.3876 128.495 57.7065C127.959 56.701 126.999 56.0824 126.042 56.1249" fill="#FF9A6C"/>
</g>
<g opacity="0.2">
<path d="M140.97 67.2841C140.091 66.7179 138.784 66.9705 138.182 67.8231C137.579 68.6758 137.78 69.9889 138.61 70.6237C139.127 71.0191 139.799 71.1463 140.448 71.2022C140.937 71.2444 141.438 71.2518 141.909 71.1152C142.379 70.9784 142.822 70.6796 143.037 70.2395C143.321 69.6576 143.155 68.9384 142.791 68.4021C142.255 67.6105 141.295 67.1236 140.338 67.1572" fill="#FF9A6C"/>
</g>
<g opacity="0.3">
<path d="M123.746 43.6441C123.755 43.6473 123.739 43.7328 123.693 43.8833C123.647 44.0333 123.574 44.2502 123.448 44.5045C123.323 44.7571 123.143 45.0553 122.853 45.309C122.568 45.5638 122.146 45.7409 121.698 45.7286C121.251 45.7235 120.835 45.5462 120.551 45.287C120.263 45.0293 120.095 44.7175 120.001 44.4483C119.91 44.1758 119.889 43.9429 119.892 43.7844C119.896 43.6253 119.918 43.5398 119.926 43.5407C119.957 43.5387 119.901 43.8976 120.099 44.4121C120.201 44.6639 120.37 44.9515 120.641 45.1841C120.908 45.4176 121.29 45.5752 121.7 45.5804C122.112 45.5906 122.493 45.4358 122.764 45.2049C123.039 44.9752 123.221 44.6961 123.355 44.456C123.617 43.9691 123.721 43.6347 123.746 43.6441Z" fill="white"/>
</g>
<g opacity="0.3">
<path d="M130.958 37.7869C130.967 37.7888 130.956 37.896 130.914 38.0856C130.871 38.2749 130.796 38.548 130.656 38.869C130.514 39.1872 130.305 39.5592 129.97 39.8899C129.641 40.222 129.164 40.4919 128.621 40.5606C128.08 40.6413 127.528 40.4837 127.172 40.1621C126.81 39.8443 126.641 39.436 126.537 39.1065C126.435 38.7709 126.391 38.4924 126.365 38.3006C126.339 38.1084 126.333 38.0012 126.343 37.9995C126.373 37.993 126.423 38.4243 126.636 39.0734C126.75 39.3907 126.923 39.7727 127.262 40.0586C127.593 40.3468 128.094 40.4882 128.601 40.4136C129.11 40.3486 129.557 40.102 129.875 39.7918C130.198 39.4828 130.41 39.1301 130.561 38.8251C130.854 38.2065 130.93 37.7789 130.958 37.7869Z" fill="#FF9A6C"/>
</g>
<g opacity="0.3">
<path d="M136.486 43.0927C136.503 43.1024 136.362 43.4296 136.206 43.9921C136.12 44.2701 136.025 44.6116 135.821 44.9551C135.624 45.2975 135.26 45.6207 134.798 45.7174C134.342 45.8229 133.883 45.7416 133.526 45.5623C133.168 45.3796 132.911 45.1179 132.736 44.879C132.559 44.6387 132.461 44.4172 132.403 44.2638C132.347 44.1084 132.331 44.0186 132.339 44.0158C132.366 44.0038 132.464 44.3627 132.819 44.8151C132.998 45.0369 133.25 45.2761 133.587 45.4397C133.92 45.5994 134.347 45.6698 134.764 45.5729C135.186 45.4828 135.511 45.2011 135.704 44.8833C135.902 44.5654 136.007 44.2327 136.105 43.9596C136.287 43.4043 136.467 43.0816 136.486 43.0927Z" fill="white"/>
</g>
<g opacity="0.3">
<path d="M141.777 54.7927C141.787 54.7941 141.785 54.8822 141.768 55.0401C141.75 55.1977 141.723 55.4267 141.658 55.7055C141.594 55.9828 141.491 56.317 141.28 56.6422C141.074 56.9689 140.728 57.2626 140.3 57.4054C139.873 57.5502 139.422 57.5394 139.055 57.4054C138.686 57.2737 138.41 57.0393 138.229 56.813C138.047 56.5852 137.953 56.3654 137.908 56.2115C137.864 56.0561 137.862 55.9666 137.87 55.9652C137.898 55.9535 137.943 56.3241 138.31 56.7451C138.491 56.9513 138.757 57.1614 139.1 57.276C139.44 57.3928 139.856 57.3985 140.252 57.2646C140.649 57.1309 140.966 56.8683 141.166 56.5658C141.37 56.2651 141.481 55.9472 141.557 55.6787C141.701 55.1379 141.751 54.7878 141.777 54.7927Z" fill="white"/>
</g>
<path d="M90.5133 78.8422C90.5024 78.8647 90.3364 78.7789 90.0498 78.7362C89.7675 78.6914 89.3509 78.7099 88.9677 78.9186C88.5851 79.1287 88.345 79.4691 88.231 79.7305C88.1127 79.9945 88.0962 80.1801 88.0713 80.1772C88.0556 80.1778 88.0336 79.984 88.1333 79.6918C88.2287 79.4041 88.4745 79.0204 88.8965 78.7883C89.3194 78.5586 89.7761 78.5586 90.0701 78.6333C90.3704 78.7065 90.5224 78.8294 90.5133 78.8422Z" fill="#FF9A6C"/>
<path d="M103.433 133.157L100.136 141.737C114.348 150.552 127.76 147.804 127.76 147.804L131.436 138.788C122.135 139.898 112.418 138.425 103.433 133.157Z" fill="#FF725E"/>
<path opacity="0.2" d="M107.843 141.316C107.443 142.225 106.38 142.638 105.469 142.239C104.557 141.84 104.143 140.78 104.543 139.871C104.943 138.962 106.006 138.548 106.917 138.947C107.828 139.346 108.243 140.407 107.843 141.316Z" fill="black"/>
<path d="M107.994 139.888C107.994 140.88 107.187 141.685 106.193 141.685C105.198 141.685 104.391 140.88 104.391 139.888C104.391 138.895 105.197 138.09 106.193 138.09C107.187 138.09 107.994 138.895 107.994 139.888Z" fill="white"/>
<path d="M107.647 139.914C107.638 139.915 107.647 139.786 107.59 139.566C107.535 139.351 107.39 139.034 107.065 138.789C106.751 138.544 106.231 138.405 105.726 138.591C105.225 138.761 104.791 139.293 104.797 139.914C104.791 140.535 105.225 141.067 105.726 141.237C106.231 141.424 106.751 141.284 107.065 141.039C107.39 140.794 107.535 140.477 107.59 140.262C107.647 140.042 107.638 139.913 107.647 139.914C107.647 139.914 107.663 140.042 107.613 140.268C107.563 140.488 107.422 140.816 107.091 141.072C106.771 141.329 106.233 141.479 105.707 141.289C105.186 141.114 104.731 140.561 104.737 139.914C104.731 139.266 105.186 138.713 105.707 138.539C106.233 138.348 106.771 138.498 107.091 138.755C107.422 139.012 107.563 139.34 107.613 139.56C107.663 139.785 107.647 139.914 107.647 139.914Z" fill="#263238"/>
<path d="M106.129 139.73C106.306 139.73 106.45 139.587 106.45 139.41C106.45 139.234 106.306 139.091 106.129 139.091C105.952 139.091 105.808 139.234 105.808 139.41C105.808 139.587 105.952 139.73 106.129 139.73Z" fill="#263238"/>
<path d="M106.567 140.531C106.567 140.708 106.423 140.851 106.246 140.851C106.069 140.851 105.926 140.708 105.926 140.531C105.926 140.354 106.069 140.211 106.246 140.211C106.423 140.211 106.567 140.354 106.567 140.531Z" fill="#263238"/>
<path d="M134.86 132.638C125.555 138.082 124.883 141.127 126.62 148.43C128.136 154.806 154.733 237.93 155.913 241.243C157.662 246.152 159.648 252.45 168.242 252.627C176.703 252.802 213.536 247.573 219.682 246.418C225.975 245.235 227.893 240.563 227.882 237.162L134.86 132.638Z" fill="url(#paint0_linear_36_1197)"/>
<path d="M163.595 246.683C162.107 248.369 160.784 247.108 159.618 245.058C157.534 241.392 135.927 178.719 135.927 178.719C144.234 205.067 155.166 239.146 155.913 241.243C157.662 246.152 159.648 252.45 168.242 252.627C176.703 252.802 213.536 247.573 219.682 246.418C225.975 245.235 227.892 240.563 227.881 237.162L196.999 202.461C188.264 214.069 164.391 245.781 163.595 246.683Z" fill="#2A3851"/>
<g opacity="0.4">
<path d="M137.485 135.587L134.86 132.638C125.555 138.082 124.883 141.127 126.62 148.43C127.774 153.281 143.442 202.549 151.393 227.304C151.392 227.301 155.647 243.19 157.01 241.51C150.905 217.915 129.944 152.028 128.835 146.203C128.084 142.261 127.979 138.66 137.485 135.587Z" fill="#F8FCFF"/>
</g>
<path d="M168.669 253.789C168.511 253.789 168.362 253.788 168.218 253.785C159.065 253.596 156.697 246.923 154.969 242.05L154.82 241.632C153.318 237.416 126.988 154.992 125.491 148.698C123.624 140.846 124.631 137.28 134.274 131.639L135.448 133.637C126.417 138.92 126.169 141.514 127.75 148.163C129.14 154.009 155.602 236.91 157.007 240.856L157.157 241.277C158.826 245.982 160.718 251.314 168.267 251.469C168.398 251.472 168.538 251.473 168.684 251.473C177.678 251.474 213.529 246.396 219.468 245.28C224.831 244.272 226.731 240.427 226.721 237.166L229.042 237.159C229.055 241.16 226.668 246.283 219.897 247.556C213.751 248.711 178.014 253.789 168.669 253.789Z" fill="#001A4F"/>
<path d="M131.883 159.233C131.59 158.301 131.708 157.566 132.412 157.13C133.078 156.717 133.96 156.778 134.345 157.606C134.767 158.514 139.162 172.35 139.406 173.1C139.813 174.354 139.698 175.04 138.88 175.396C137.842 175.847 137.198 175.315 136.768 174.253C136.399 173.341 131.883 159.233 131.883 159.233Z" fill="#F8FCFF"/>
<path d="M131.883 159.233C131.59 158.301 131.708 157.566 132.412 157.13C133.078 156.717 133.96 156.778 134.345 157.606C134.767 158.514 139.162 172.35 139.406 173.1C139.813 174.354 139.698 175.04 138.88 175.396C137.842 175.847 137.198 175.315 136.768 174.253C136.399 173.341 131.883 159.233 131.883 159.233Z" fill="#9595EF"/>
<path d="M132.579 160.854C132.287 159.922 132.405 159.187 133.109 158.751C133.775 158.338 134.656 158.399 135.042 159.227C135.464 160.135 139.859 173.972 140.102 174.721C140.51 175.975 140.395 176.661 139.577 177.017C138.539 177.468 137.894 176.936 137.464 175.874C137.095 174.962 132.579 160.854 132.579 160.854Z" fill="#2A3851"/>
<path d="M131.883 159.233C131.59 158.301 131.708 157.566 132.412 157.13C133.078 156.717 133.96 156.778 134.345 157.606C134.767 158.514 139.162 172.35 139.406 173.1C139.813 174.354 139.698 175.04 138.88 175.396C137.842 175.847 137.198 175.315 136.768 174.253C136.399 173.341 131.883 159.233 131.883 159.233Z" fill="#525F7C"/>
<path d="M137.514 172.922C137.186 171.995 132.629 157.902 132.629 157.902C132.537 157.611 132.486 157.34 132.48 157.091C132.458 157.104 132.435 157.116 132.412 157.129C131.708 157.566 131.59 158.301 131.883 159.232C131.883 159.232 136.399 173.341 136.768 174.253C137.198 175.315 137.842 175.847 138.88 175.396C139.457 175.145 139.683 174.729 139.624 174.066C138.19 174.716 138.082 174.529 137.514 172.922Z" fill="#33405B"/>
<g opacity="0.45">
<path d="M139.406 173.1C139.162 172.35 134.768 158.514 134.345 157.606C133.995 156.854 133.235 156.736 132.6 157.03C132.915 157.116 133.196 157.333 133.372 157.712C133.795 158.619 138.189 172.456 138.433 173.205C138.84 174.459 138.725 175.146 137.907 175.501C137.896 175.506 137.886 175.509 137.875 175.514C138.162 175.595 138.494 175.564 138.881 175.396C139.699 175.04 139.813 174.354 139.406 173.1Z" fill="#F8FCFF"/>
</g>
<path d="M146.775 196.759C147.126 197.634 151.399 211.509 151.646 212.257L146.775 196.759Z" fill="#F8FCFF"/>
<path d="M138.19 176.137C137.963 176.137 137.746 176.095 137.54 176.011C136.986 175.785 136.558 175.281 136.23 174.47C135.857 173.549 131.515 159.986 131.33 159.409L131.329 159.406C130.832 157.825 131.477 157.028 132.106 156.638C132.63 156.314 133.234 156.218 133.765 156.376C134.25 156.52 134.643 156.871 134.872 157.363C135.131 157.919 136.588 162.368 139.596 171.789C139.791 172.402 139.921 172.809 139.958 172.921C140.163 173.554 140.709 175.233 139.112 175.927C138.79 176.067 138.482 176.137 138.19 176.137ZM132.436 159.059C133.996 163.932 137.021 173.331 137.306 174.036C137.505 174.528 137.738 174.84 137.979 174.939C138.043 174.965 138.237 175.044 138.649 174.865C138.945 174.737 139.28 174.591 138.854 173.278C138.817 173.166 138.686 172.757 138.49 172.141C135.618 163.148 134.047 158.34 133.819 157.85C133.728 157.655 133.602 157.536 133.433 157.486C133.224 157.423 132.956 157.474 132.719 157.622C132.535 157.735 132.105 158.002 132.436 159.059Z" fill="#001A4F"/>
<path d="M144.616 198.334C144.33 197.401 144.453 196.666 145.16 196.235C145.829 195.826 146.687 195.872 147.043 196.759C147.394 197.634 151.667 211.509 151.913 212.257C152.313 213.472 152.358 214.211 151.306 214.61C150.488 214.921 149.868 214.655 149.399 213.387C149.057 212.465 144.616 198.334 144.616 198.334Z" fill="#525F7C"/>
<path d="M151.764 213.442C150.946 213.753 150.327 213.487 149.857 212.219C149.515 211.297 145.074 197.166 145.074 197.166C144.968 196.818 144.918 196.498 144.934 196.211C144.92 196.219 144.906 196.226 144.892 196.235C144.185 196.666 144.062 197.401 144.348 198.334C144.348 198.334 148.789 212.465 149.131 213.387C149.601 214.655 150.22 214.921 151.038 214.61C151.714 214.354 151.936 213.956 151.903 213.383C151.858 213.403 151.814 213.424 151.764 213.442Z" fill="#33405B"/>
<g opacity="0.45">
<path d="M151.646 212.257C151.399 211.509 147.126 197.634 146.775 196.759C146.428 195.893 145.602 195.83 144.941 196.208C145.294 196.272 145.61 196.504 145.792 196.96C146.143 197.835 150.416 211.71 150.663 212.458C151.031 213.578 151.096 214.292 150.281 214.71C150.512 214.752 150.764 214.714 151.038 214.61C152.09 214.211 152.046 213.472 151.646 212.257Z" fill="#F8FCFF"/>
</g>
<path d="M150.466 215.307C150.234 215.307 150.015 215.26 149.81 215.167C149.294 214.933 148.894 214.417 148.587 213.588C148.244 212.662 143.976 199.084 143.795 198.507L143.794 198.503C143.307 196.918 143.958 196.126 144.59 195.74C145.129 195.411 145.735 195.322 146.254 195.493C146.59 195.605 147.047 195.877 147.314 196.544C147.55 197.131 149.324 202.833 151.121 208.624C151.682 210.431 152.125 211.859 152.197 212.076C152.475 212.919 152.991 214.489 151.244 215.151C150.972 215.255 150.712 215.307 150.466 215.307ZM144.903 198.162C144.978 198.402 149.344 212.291 149.675 213.186C149.914 213.83 150.142 214.045 150.29 214.113C150.338 214.135 150.484 214.201 150.832 214.069C151.325 213.882 151.525 213.744 151.094 212.438C151.019 212.211 150.597 210.85 150.013 208.966C148.689 204.703 146.474 197.567 146.236 196.973C146.154 196.767 146.04 196.643 145.888 196.592C145.697 196.529 145.438 196.58 145.195 196.728C145.011 196.841 144.579 197.105 144.903 198.162Z" fill="#001A4F"/>
<path d="M177.874 247.305C170.406 247.857 165.387 248.586 161.791 237.744C158.195 226.903 133.221 147.109 132.312 143.955C131.404 140.802 128.993 133.626 137.568 131.695C146.143 129.763 176.057 127.121 180.285 126.727C184.513 126.333 191.468 126.491 194.234 134.099C197 141.708 224.216 224.414 225.995 229.682C228.702 237.695 229.443 240.741 221.678 241.923C215.959 242.794 183.756 246.87 177.874 247.305Z" fill="url(#paint1_linear_36_1197)"/>
<g opacity="0.4">
<path d="M194.234 134.099C191.468 126.491 184.513 126.333 180.285 126.727C176.057 127.121 146.143 129.763 137.568 131.695C128.993 133.626 131.404 140.802 132.312 143.955C132.612 144.995 135.527 154.363 139.429 166.844C139.428 166.782 139.415 166.698 139.386 166.585C136.831 156.742 134.967 148.894 134.012 144.113C132.599 137.046 133.678 134.542 137.331 133.686C149.664 130.796 176.373 128.501 182.853 128.344C186.928 128.245 190.59 129.942 192.258 133.429C194.605 138.333 216.897 210.739 223.93 226.903C225.323 230.103 226.242 230.214 226.242 230.214C226.242 230.214 197.949 145.112 198.885 147.821C196.54 140.803 194.826 135.729 194.234 134.099Z" fill="#F8FCFF"/>
</g>
<path d="M173.06 248.728C167.873 248.728 163.685 247.141 160.689 238.108C156.999 226.983 131.942 146.862 131.197 144.275L131.102 143.948C130.419 141.606 129.275 137.686 131.173 134.475C132.317 132.541 134.382 131.225 137.312 130.565C142.623 129.369 156.584 127.732 178.806 125.7L180.177 125.574C188.001 124.846 193.099 127.58 195.325 133.705C197.315 139.178 211.901 183.342 220.616 209.728C224.086 220.235 226.594 227.827 227.096 229.313C228.81 234.387 229.787 237.617 228.35 239.97C227.369 241.578 225.365 242.533 221.853 243.068C216.161 243.935 183.927 248.019 177.96 248.46L177.283 248.51C175.811 248.621 174.402 248.728 173.06 248.728ZM182.648 127.77C181.932 127.77 181.181 127.807 180.393 127.88L179.018 128.007C156.896 130.029 143.036 131.65 137.824 132.824C135.543 133.338 133.978 134.29 133.173 135.652C131.785 138 132.753 141.318 133.331 143.301L133.428 143.635C134.172 146.219 159.206 226.264 162.894 237.381C166.094 247.031 170.006 246.736 177.108 246.201L177.789 246.15C183.723 245.711 215.83 241.643 221.503 240.779C224.237 240.362 225.783 239.722 226.368 238.765C227.251 237.318 226.401 234.508 224.896 230.052C224.391 228.559 221.883 220.964 218.411 210.453C209.701 184.078 195.121 139.936 193.143 134.494C191.487 129.94 188.126 127.77 182.648 127.77Z" fill="#001A4F"/>
<path d="M177.756 243.52C168.921 244.285 167.63 241.592 165.545 235.616C163.821 230.673 137.489 147.879 137.489 147.879C135.335 140.723 133.538 136.13 140.65 135.105C140.65 135.105 174.772 130.512 178.606 130.02C182.439 129.527 188.88 129.487 191.349 136.288C191.349 136.288 219.775 222.801 221.056 227.11C223.871 236.582 224.345 237.41 218.181 238.533C210.765 239.885 182.883 243.077 177.756 243.52Z" fill="#88ADE5"/>
<path d="M177.756 243.52C168.921 244.285 167.63 241.592 165.545 235.616C163.821 230.673 137.489 147.879 137.489 147.879C135.335 140.723 133.538 136.13 140.65 135.105C140.65 135.105 174.772 130.512 178.606 130.02C182.439 129.527 188.88 129.487 191.349 136.288C191.349 136.288 219.775 222.801 221.056 227.11C223.871 236.582 224.345 237.41 218.181 238.533C210.765 239.885 182.883 243.077 177.756 243.52Z" fill="#93C1F9"/>
<g opacity="0.25">
<path d="M219.081 237.787C211.847 239.106 184.65 242.219 179.649 242.652C171.031 243.397 169.771 240.77 167.738 234.941C166.057 230.12 139.781 147.425 139.781 147.425C137.68 140.445 136.323 137.963 143.455 136.899C143.455 136.899 176.739 132.419 180.478 131.938C183.205 131.588 187.283 131.476 190.227 134.012C187.282 129.506 181.951 129.589 178.606 130.019C174.773 130.512 140.65 135.105 140.65 135.105C133.538 136.13 135.335 140.723 137.489 147.878C137.489 147.878 163.821 230.673 165.545 235.616C167.63 241.592 168.921 244.284 177.756 243.52C182.883 243.077 210.765 239.885 218.181 238.533C220.633 238.086 222.032 237.684 222.653 236.768C221.892 237.206 220.732 237.486 219.081 237.787Z" fill="#001A4F"/>
</g>
<path d="M158.749 138.56C156.573 138.814 155.572 138.348 155.039 136.574C154.685 135.395 154.987 134.671 157.343 134.275C159.544 133.905 165.861 133.129 167.007 133.001C168.153 132.873 169.145 132.903 169.734 134.332C170.386 135.913 170.169 136.648 168.351 137.111C166.459 137.593 158.749 138.56 158.749 138.56Z" fill="#001A4F"/>
<path opacity="0.7" d="M190.356 134.221C190.732 134.829 191.067 135.512 191.349 136.288C191.349 136.288 193.807 143.769 197.31 154.439L155.858 203.187C155.635 203.274 155.414 203.358 155.194 203.441C152.946 196.402 150.565 188.938 148.303 181.841C148.468 181.584 148.632 181.328 148.801 181.066L190.356 134.221ZM200.164 163.136L159.281 213.894C159.09 214.091 158.908 214.282 158.722 214.476C160.592 220.319 162.232 225.429 163.444 229.187C163.668 229.112 163.892 229.037 164.117 228.961L204.773 177.19C203.191 172.362 201.63 167.604 200.164 163.136Z" fill="url(#paint2_linear_36_1197)"/>
<path d="M175.139 244.57C168.049 244.57 166.595 241.444 164.669 235.92C162.96 231.021 136.867 148.986 136.604 148.158C136.49 147.778 136.38 147.419 136.273 147.066C134.934 142.663 133.877 139.185 135.398 136.8C136.283 135.411 137.958 134.557 140.518 134.188C140.868 134.141 174.695 129.588 178.487 129.1C185.613 128.185 190.234 130.496 192.223 135.972L192.232 135.999C193.393 139.532 220.676 222.574 221.946 226.847L222.223 227.777C223.805 233.083 224.527 235.505 223.496 237.181C222.645 238.564 220.744 239.007 218.348 239.444C210.868 240.808 182.958 244 177.836 244.443C176.856 244.528 175.959 244.57 175.139 244.57ZM181.377 130.757C180.546 130.757 179.662 130.817 178.724 130.938C174.938 131.425 141.116 135.977 140.775 136.023C138.791 136.309 137.542 136.889 136.965 137.794C135.902 139.462 136.85 142.58 138.05 146.528C138.158 146.882 138.268 147.244 138.379 147.612C138.638 148.426 164.723 230.436 166.423 235.311C168.343 240.816 169.219 243.329 177.676 242.597C182.777 242.156 210.575 238.977 218.014 237.621C220.176 237.228 221.507 236.87 221.913 236.211C222.51 235.24 221.732 232.63 220.443 228.305L220.165 227.373C218.908 223.142 190.967 138.099 190.472 136.59C189.046 132.68 186.059 130.757 181.377 130.757Z" fill="#001A4F"/>
<path d="M194.047 248.53L194.896 246.97L202.797 245.957L201.791 247.549L194.047 248.53Z" fill="#001A4F"/>
<path d="M131.831 133.849C141.136 139.293 141.808 142.338 140.071 149.641C138.555 156.017 111.958 239.141 110.778 242.454C109.029 247.363 107.044 253.661 98.4489 253.838C89.9884 254.013 53.155 248.784 47.0089 247.629C40.716 246.446 38.7988 241.774 38.8098 238.373L131.831 133.849Z" fill="url(#paint3_linear_36_1197)"/>
<path d="M103.097 247.894C104.584 249.58 105.908 248.319 107.073 246.268C109.158 242.603 130.765 179.93 130.765 179.93C122.457 206.278 111.525 240.357 110.778 242.454C109.029 247.363 107.044 253.66 98.449 253.838C89.9885 254.013 53.155 248.784 47.009 247.629C40.7161 246.446 38.7989 241.774 38.8098 238.373L69.6924 203.672C78.4272 215.28 102.3 246.992 103.097 247.894Z" fill="#2A3851"/>
<g opacity="0.4">
<path d="M129.206 136.798L131.831 133.849C141.136 139.292 141.808 142.337 140.071 149.641C138.918 154.491 123.249 203.76 115.298 228.515C115.299 228.511 111.045 244.4 109.681 242.72C115.787 219.125 136.747 153.239 137.856 147.413C138.607 143.471 138.712 139.87 129.206 136.798Z" fill="#F8FCFF"/>
</g>
<path d="M98.0224 255C98.1808 255 98.3299 254.999 98.4729 254.996C107.627 254.807 109.994 248.133 111.723 243.261L111.872 242.842C113.373 238.627 139.704 156.203 141.201 149.908C143.068 142.056 142.06 138.49 132.418 132.85L131.244 134.848C140.275 140.131 140.523 142.724 138.942 149.374C137.552 155.219 111.09 238.121 109.684 242.066L109.534 242.488C107.865 247.192 105.974 252.524 98.4249 252.68C98.2936 252.683 98.1536 252.684 98.0079 252.684C89.013 252.685 53.1624 247.607 47.2238 246.491C41.8599 245.482 39.9599 241.638 39.9704 238.377L37.649 238.369C37.636 242.37 40.0232 247.494 46.794 248.767C52.9405 249.922 88.677 254.999 98.0224 255Z" fill="#001A4F"/>
<path d="M134.809 160.443C135.101 159.512 134.983 158.777 134.279 158.34C133.613 157.927 132.732 157.989 132.346 158.817C131.924 159.724 127.529 173.561 127.286 174.31C126.878 175.564 126.993 176.251 127.811 176.606C128.849 177.058 129.494 176.525 129.924 175.463C130.293 174.552 134.809 160.443 134.809 160.443Z" fill="#F8FCFF"/>
<path d="M134.809 160.443C135.101 159.512 134.983 158.777 134.279 158.34C133.613 157.927 132.732 157.989 132.346 158.817C131.924 159.724 127.529 173.561 127.286 174.31C126.878 175.564 126.993 176.251 127.811 176.606C128.849 177.058 129.494 176.525 129.924 175.463C130.293 174.552 134.809 160.443 134.809 160.443Z" fill="#9595EF"/>
<path d="M134.112 162.064C134.405 161.133 134.286 160.398 133.582 159.961C132.917 159.548 132.035 159.61 131.65 160.438C131.227 161.346 126.833 175.182 126.589 175.931C126.182 177.186 126.297 177.872 127.115 178.228C128.153 178.679 128.797 178.147 129.227 177.085C129.596 176.173 134.112 162.064 134.112 162.064Z" fill="#2A3851"/>
<path d="M134.809 160.443C135.101 159.512 134.983 158.777 134.279 158.34C133.613 157.927 132.732 157.989 132.346 158.817C131.924 159.724 127.529 173.561 127.286 174.31C126.878 175.564 126.993 176.251 127.811 176.606C128.849 177.058 129.494 176.525 129.924 175.463C130.293 174.552 134.809 160.443 134.809 160.443Z" fill="#525F7C"/>
<path d="M129.178 174.133C129.506 173.206 134.063 159.113 134.063 159.113C134.154 158.822 134.205 158.551 134.211 158.302C134.234 158.315 134.257 158.327 134.279 158.34C134.983 158.777 135.101 159.512 134.809 160.443C134.809 160.443 130.292 174.552 129.924 175.464C129.494 176.526 128.849 177.058 127.811 176.607C127.234 176.356 127.009 175.94 127.068 175.277C128.501 175.927 128.61 175.74 129.178 174.133Z" fill="#33405B"/>
<g opacity="0.45">
<path d="M127.286 174.31C127.529 173.561 131.924 159.725 132.346 158.817C132.697 158.064 133.457 157.946 134.092 158.241C133.776 158.327 133.496 158.544 133.319 158.922C132.897 159.83 128.502 173.667 128.259 174.416C127.851 175.67 127.966 176.357 128.784 176.712C128.795 176.717 128.806 176.72 128.816 176.724C128.53 176.806 128.198 176.775 127.811 176.606C126.993 176.251 126.878 175.565 127.286 174.31Z" fill="#F8FCFF"/>
</g>
<path d="M119.916 197.969C119.565 198.844 115.292 212.719 115.046 213.468L119.916 197.969Z" fill="#F8FCFF"/>
<path d="M128.502 177.347C128.728 177.347 128.945 177.305 129.152 177.221C129.705 176.995 130.133 176.491 130.462 175.68C130.834 174.759 135.177 161.196 135.361 160.619L135.362 160.617C135.859 159.035 135.214 158.238 134.585 157.848C134.062 157.524 133.457 157.429 132.926 157.587C132.441 157.731 132.049 158.081 131.82 158.573C131.561 159.13 130.104 163.579 127.096 173C126.9 173.613 126.77 174.02 126.733 174.132C126.528 174.764 125.982 176.443 127.579 177.137C127.901 177.277 128.209 177.347 128.502 177.347ZM134.255 160.269C132.695 165.142 129.671 174.541 129.385 175.247C129.186 175.739 128.954 176.051 128.712 176.149C128.648 176.175 128.454 176.254 128.043 176.076C127.747 175.947 127.411 175.801 127.838 174.489C127.874 174.376 128.005 173.967 128.202 173.351C131.073 164.359 132.645 159.551 132.873 159.061C132.963 158.866 133.089 158.747 133.258 158.696C133.468 158.633 133.735 158.684 133.972 158.832C134.156 158.946 134.587 159.213 134.255 160.269Z" fill="#001A4F"/>
<path d="M122.075 199.545C122.361 198.611 122.238 197.877 121.531 197.445C120.863 197.037 120.004 197.083 119.648 197.97C119.298 198.845 115.024 212.72 114.778 213.468C114.378 214.683 114.333 215.422 115.385 215.821C116.203 216.132 116.823 215.866 117.293 214.598C117.635 213.676 122.075 199.545 122.075 199.545Z" fill="#525F7C"/>
<path d="M114.927 214.653C115.745 214.964 116.364 214.698 116.834 213.43C117.176 212.508 121.617 198.377 121.617 198.377C121.723 198.029 121.773 197.709 121.757 197.422C121.771 197.43 121.785 197.437 121.799 197.445C122.506 197.877 122.629 198.611 122.343 199.545C122.343 199.545 117.902 213.676 117.56 214.598C117.091 215.866 116.471 216.132 115.653 215.821C114.977 215.565 114.755 215.167 114.788 214.594C114.833 214.614 114.878 214.635 114.927 214.653Z" fill="#33405B"/>
<g opacity="0.45">
<path d="M115.046 213.468C115.292 212.719 119.565 198.844 119.916 197.969C120.263 197.103 121.09 197.041 121.751 197.418C121.397 197.482 121.081 197.715 120.899 198.17C120.548 199.045 116.275 212.92 116.029 213.669C115.66 214.788 115.595 215.503 116.411 215.921C116.179 215.962 115.928 215.925 115.653 215.821C114.601 215.422 114.645 214.682 115.046 213.468Z" fill="#F8FCFF"/>
</g>
<path d="M116.225 216.518C116.458 216.518 116.677 216.471 116.881 216.378C117.397 216.144 117.798 215.628 118.105 214.799C118.448 213.874 122.715 200.295 122.897 199.718L122.898 199.714C123.384 198.129 122.733 197.337 122.102 196.952C121.563 196.622 120.956 196.533 120.438 196.704C120.101 196.816 119.644 197.088 119.377 197.755C119.142 198.342 117.367 204.044 115.57 209.835C115.009 211.642 114.566 213.07 114.494 213.288C114.217 214.13 113.7 215.7 115.447 216.362C115.72 216.466 115.98 216.518 116.225 216.518ZM121.788 199.373C121.713 199.613 117.348 213.502 117.016 214.397C116.777 215.041 116.55 215.257 116.401 215.324C116.353 215.346 116.207 215.412 115.859 215.28C115.367 215.093 115.167 214.955 115.597 213.649C115.672 213.422 116.094 212.061 116.679 210.177C118.002 205.914 120.217 198.778 120.455 198.185C120.538 197.978 120.652 197.854 120.803 197.803C120.994 197.74 121.253 197.791 121.496 197.939C121.68 198.052 122.112 198.316 121.788 199.373Z" fill="#001A4F"/>
<path d="M88.8169 248.516C96.2854 249.067 101.304 249.797 104.9 238.955C108.496 228.114 133.47 148.32 134.379 145.166C135.288 142.012 137.698 134.837 129.123 132.906C120.548 130.974 90.6346 128.332 86.4065 127.938C82.1782 127.544 75.2234 127.702 72.4573 135.31C69.6911 142.919 42.4753 225.625 40.6958 230.893C37.9894 238.906 37.2485 241.951 45.0134 243.134C50.7319 244.005 82.9356 248.081 88.8169 248.516Z" fill="url(#paint4_linear_36_1197)"/>
<g opacity="0.4">
<path d="M72.4573 135.31C75.2234 127.702 82.1782 127.544 86.4064 127.938C90.6346 128.332 120.548 130.974 129.123 132.906C137.698 134.837 135.288 142.012 134.379 145.166C134.079 146.206 131.164 155.574 127.263 168.055C127.263 167.993 127.276 167.909 127.306 167.796C129.86 157.953 131.724 150.105 132.68 145.324C134.092 138.257 133.014 135.753 129.36 134.897C117.027 132.007 90.3185 129.712 83.8378 129.555C79.7629 129.455 76.1015 131.153 74.433 134.64C72.0868 139.544 49.7948 211.95 42.7609 228.114C41.3684 231.314 40.4492 231.425 40.4492 231.425C40.4492 231.425 68.7421 146.323 67.8064 149.032C70.1511 142.014 71.865 136.94 72.4573 135.31Z" fill="#F8FCFF"/>
</g>
<path d="M93.6314 249.939C98.8187 249.939 103.006 248.352 106.002 239.319C109.692 228.194 134.749 148.073 135.494 145.486L135.59 145.159C136.273 142.817 137.416 138.897 135.518 135.686C134.375 133.752 132.309 132.436 129.379 131.776C124.068 130.58 110.108 128.943 87.8848 126.911L86.5144 126.785C78.6899 126.057 73.5924 128.791 71.3661 134.916C69.3761 140.389 54.79 184.552 46.0751 210.939C42.6048 221.446 40.0975 229.038 39.5958 230.524C37.8818 235.598 36.9042 238.828 38.341 241.181C39.3228 242.789 41.3265 243.744 44.8381 244.279C50.5299 245.146 82.7641 249.23 88.731 249.671L89.4083 249.721C90.8805 249.832 92.2896 249.939 93.6314 249.939ZM84.0435 128.981C84.7589 128.981 85.5101 129.018 86.2983 129.091L87.673 129.218C109.795 131.24 123.655 132.861 128.868 134.035C131.148 134.549 132.713 135.5 133.518 136.862C134.906 139.211 133.939 142.529 133.36 144.512L133.263 144.846C132.519 147.43 107.485 227.475 103.798 238.592C100.597 248.242 96.6849 247.947 89.5832 247.412L88.9025 247.361C82.968 246.922 50.8618 242.854 45.1884 241.99C42.4539 241.573 40.9081 240.933 40.3235 239.976C39.4403 238.529 40.2904 235.719 41.7956 231.263C42.2999 229.77 44.8083 222.175 48.2799 211.664C56.9907 185.289 71.57 141.147 73.5482 135.705C75.2041 131.151 78.5651 128.981 84.0435 128.981Z" fill="#001A4F"/>
<path d="M88.9354 244.731C97.7702 245.495 99.0616 242.802 101.146 236.826C102.87 231.883 129.202 149.089 129.202 149.089C131.356 141.934 133.154 137.341 126.041 136.316C126.041 136.316 91.9188 131.723 88.0857 131.23C84.2526 130.737 77.8116 130.698 75.3418 137.498C75.3418 137.498 46.9167 224.011 45.6356 228.321C42.8201 237.792 42.3459 238.62 48.5104 239.744C55.9267 241.096 83.8082 244.287 88.9354 244.731Z" fill="#88ADE5"/>
<path d="M88.9354 244.731C97.7702 245.495 99.0616 242.802 101.146 236.826C102.87 231.883 129.202 149.089 129.202 149.089C131.356 141.934 133.154 137.341 126.041 136.316C126.041 136.316 91.9188 131.723 88.0857 131.23C84.2526 130.737 77.8116 130.698 75.3418 137.498C75.3418 137.498 46.9167 224.011 45.6356 228.321C42.8201 237.792 42.3459 238.62 48.5104 239.744C55.9267 241.096 83.8082 244.287 88.9354 244.731Z" fill="#93C1F9"/>
<g opacity="0.25">
<path d="M47.6101 238.998C54.8442 240.316 82.0409 243.43 87.0423 243.862C95.6601 244.608 96.9199 241.981 98.9528 236.152C100.635 231.33 126.91 148.636 126.91 148.636C129.011 141.656 130.368 139.174 123.237 138.11C123.237 138.11 89.9524 133.63 86.2135 133.149C83.4866 132.798 79.408 132.686 76.4645 135.223C79.4091 130.716 84.7404 130.8 88.0857 131.23C91.9188 131.723 126.041 136.316 126.041 136.316C133.154 137.341 131.356 141.934 129.202 149.089C129.202 149.089 102.87 231.883 101.146 236.826C99.0616 242.802 97.7702 245.495 88.9354 244.731C83.8081 244.287 55.9267 241.096 48.5105 239.744C46.0585 239.297 44.6596 238.895 44.0379 237.979C44.7993 238.417 45.9594 238.697 47.6101 238.998Z" fill="#001A4F"/>
</g>
<path d="M107.943 139.77C110.119 140.024 111.119 139.558 111.652 137.784C112.007 136.606 111.705 135.881 109.348 135.485C107.147 135.116 100.83 134.34 99.6839 134.211C98.5379 134.083 97.5461 134.113 96.9573 135.542C96.3052 137.124 96.5226 137.858 98.3403 138.321C100.232 138.804 107.943 139.77 107.943 139.77Z" fill="#001A4F"/>
<path opacity="0.7" d="M76.3352 135.432C75.9596 136.039 75.6238 136.722 75.3419 137.499C75.3419 137.499 72.884 144.979 69.3817 155.649L110.833 204.397C111.057 204.484 111.277 204.568 111.497 204.652C113.745 197.613 116.126 190.148 118.388 183.051C118.223 182.794 118.06 182.538 117.89 182.277L76.3352 135.432ZM66.5274 164.347L107.411 215.104C107.601 215.302 107.783 215.493 107.969 215.686C106.099 221.529 104.46 226.64 103.247 230.397C103.024 230.322 102.8 230.247 102.575 230.171L61.9178 178.4C63.5008 173.572 65.0613 168.814 66.5274 164.347Z" fill="url(#paint5_linear_36_1197)"/>
<path d="M91.5522 245.78C98.6422 245.78 100.096 242.655 102.023 237.131C103.731 232.232 129.824 150.197 130.087 149.369C130.202 148.989 130.311 148.63 130.418 148.277C131.757 143.874 132.814 140.396 131.294 138.011C130.408 136.622 128.734 135.768 126.174 135.399C125.824 135.352 91.9964 130.799 88.2045 130.311C81.0784 129.396 76.4575 131.707 74.4688 137.183L74.4595 137.21C73.2986 140.743 46.0155 223.784 44.7454 228.057L44.4684 228.988C42.8865 234.294 42.1646 236.716 43.1958 238.391C44.0467 239.774 45.9473 240.218 48.3435 240.655C55.8235 242.019 83.7333 245.211 88.8552 245.654C89.8358 245.739 90.732 245.78 91.5522 245.78ZM85.3147 131.968C86.1454 131.968 87.029 132.028 87.967 132.149C91.7536 132.636 125.575 137.188 125.917 137.234C127.9 137.52 129.149 138.1 129.726 139.005C130.789 140.673 129.841 143.791 128.641 147.739C128.533 148.093 128.424 148.455 128.313 148.823C128.054 149.637 101.969 231.647 100.269 236.522C98.3488 242.027 97.4719 244.54 89.0155 243.808C83.9141 243.367 56.1165 240.188 48.6774 238.832C46.5152 238.438 45.1841 238.081 44.7786 237.422C44.1811 236.451 44.9593 233.841 46.2485 229.516L46.526 228.584C47.7839 224.353 75.7241 139.31 76.2199 137.801C77.645 133.891 80.6321 131.968 85.3147 131.968Z" fill="#001A4F"/>
<path d="M72.6448 249.741L71.7954 248.181L63.8944 247.168L64.8998 248.76L72.6448 249.741Z" fill="#001A4F"/>
<defs>
<linearGradient id="paint0_linear_36_1197" x1="123.765" y1="176.92" x2="221.622" y2="236.199" gradientUnits="userSpaceOnUse">
<stop stop-color="#525F7C"/>
<stop offset="1" stop-color="#33405B"/>
</linearGradient>
<linearGradient id="paint1_linear_36_1197" x1="130.709" y1="127.756" x2="210.501" y2="227.463" gradientUnits="userSpaceOnUse">
<stop stop-color="#707F99"/>
<stop offset="0.5631" stop-color="#525F7C"/>
<stop offset="1" stop-color="#33405B"/>
</linearGradient>
<linearGradient id="paint2_linear_36_1197" x1="191.729" y1="115.106" x2="164.819" y2="229.739" gradientUnits="userSpaceOnUse">
<stop stop-color="#F8FCFF"/>
<stop offset="1" stop-color="white"/>
</linearGradient>
<linearGradient id="paint3_linear_36_1197" x1="142.927" y1="178.131" x2="45.0694" y2="237.41" gradientUnits="userSpaceOnUse">
<stop stop-color="#525F7C"/>
<stop offset="1" stop-color="#33405B"/>
</linearGradient>
<linearGradient id="paint4_linear_36_1197" x1="135.982" y1="128.967" x2="56.19" y2="228.674" gradientUnits="userSpaceOnUse">
<stop stop-color="#707F99"/>
<stop offset="0.5631" stop-color="#525F7C"/>
<stop offset="1" stop-color="#33405B"/>
</linearGradient>
<linearGradient id="paint5_linear_36_1197" x1="74.9624" y1="116.316" x2="101.872" y2="230.949" gradientUnits="userSpaceOnUse">
<stop stop-color="#F8FCFF"/>
<stop offset="1" stop-color="white"/>
</linearGradient>
</defs>
</svg>
